<svg width="200" height="200" viewBox="0 0 200 200" fill="none" xmlns="http://www.w3.org/2000/svg">
<path d="M70.2478 108.363C75.1204 108.363 79.1636 105.011 80.3039 100.484H90.3255V95.4728H80.3039C79.1981 90.9458 75.1204 87.5938 70.2478 87.5938C64.5458 87.5938 59.8806 92.2244 59.8806 97.9609C59.8806 97.9609 59.8806 97.9609 59.8806 97.9955C59.8806 97.9955 59.8806 97.9955 59.8806 98.03C59.8806 103.732 64.5458 108.363 70.2478 108.363ZM70.2478 92.6045C73.2197 92.6045 75.6387 95.0236 75.6387 97.9955C75.6387 100.967 73.2197 103.386 70.2478 103.386C67.2759 103.386 64.8569 100.967 64.8569 97.9955C64.8569 95.0236 67.2759 92.6045 70.2478 92.6045Z" fill="#4185B9"/>
<path d="M70.2478 167.07C75.9498 167.07 80.615 162.439 80.615 156.703C80.615 151.83 77.263 147.787 72.736 146.647V142.569C72.736 137.869 76.5718 134.033 81.2716 134.033H90.4293C90.3947 133.653 90.3602 133.273 90.3602 132.893V129.057H81.2716C73.8418 129.057 67.7943 135.105 67.7943 142.534V146.612C63.2673 147.718 59.9152 151.796 59.9152 156.668C59.8807 162.439 64.5459 167.07 70.2478 167.07ZM70.2478 151.312C73.2198 151.312 75.6388 153.731 75.6388 156.703C75.6388 159.675 73.2198 162.094 70.2478 162.094C67.2759 162.094 64.8569 159.675 64.8569 156.703C64.8569 153.766 67.2759 151.312 70.2478 151.312Z" fill="#4185B9"/>
<path d="M59.8806 39.2539C59.8806 44.1265 63.2327 48.1697 67.7597 49.31V53.3878C67.7597 60.8176 73.8072 66.8651 81.237 66.8651H90.3255V63.6513C90.3255 63.0638 90.3947 62.4764 90.4983 61.9234H81.2715C76.5718 61.9234 72.7359 58.0876 72.7359 53.3878V49.31C77.2629 48.2042 80.615 44.1265 80.615 39.2539C80.615 33.5519 75.9843 28.8867 70.2478 28.8867C64.5113 28.8867 59.8806 33.5519 59.8806 39.2539ZM70.2478 33.863C73.2197 33.863 75.6387 36.282 75.6387 39.2539C75.6387 42.2258 73.2197 44.6448 70.2478 44.6448C67.2759 44.6448 64.8569 42.2258 64.8569 39.2539C64.8569 36.282 67.2759 33.863 70.2478 33.863Z" fill="#4185B9"/>
<path d="M57.2891 74.7297C52.6117 74.7297 48.7941 70.8706 48.7941 66.1422L48.7941 62.0397C53.2995 60.9272 56.6356 56.8247 56.6356 51.9225C56.6356 46.186 52.027 41.4924 46.3178 41.4924C40.643 41.4924 35.9999 46.1512 35.9999 51.9225C35.9999 56.8247 39.336 60.8924 43.8415 62.0397L43.8415 66.1422C43.8415 73.6172 49.8602 79.7014 57.2547 79.7014L90.8565 79.7014L90.8565 75.877C90.8565 75.4946 90.8909 75.1121 90.9253 74.7297L57.2891 74.7297ZM40.9525 51.9225C40.9525 48.9326 43.36 46.4989 46.3178 46.4989C49.2756 46.4989 51.6831 48.9326 51.6831 51.9225C51.6831 54.9125 49.2756 57.3462 46.3178 57.3462C43.36 57.3462 40.9525 54.9125 40.9525 51.9225Z" fill="#4185B9"/>
<path d="M57.2891 121.29C52.6117 121.29 48.7941 125.149 48.7941 129.878L48.7941 133.98C53.2995 135.093 56.6356 139.195 56.6356 144.097C56.6356 149.834 52.027 154.527 46.3178 154.527C40.643 154.527 35.9999 149.869 35.9999 144.097C35.9999 139.195 39.336 135.127 43.8415 133.98L43.8415 129.878C43.8415 122.403 49.8602 116.318 57.2547 116.318L90.8565 116.318L90.8565 120.143C90.8565 120.525 90.8909 120.908 90.9253 121.29L57.2891 121.29ZM40.9525 144.097C40.9525 147.087 43.36 149.521 46.3178 149.521C49.2756 149.521 51.6831 147.087 51.6831 144.097C51.6831 141.107 49.2756 138.674 46.3178 138.674C43.36 138.674 40.9525 141.107 40.9525 144.097Z" fill="#4185B9"/>
<path fill-rule="evenodd" clip-rule="evenodd" d="M164.589 97.2354C164.589 91.3348 162.232 85.7431 158.066 81.6308C158.726 79.52 159.06 77.3367 159.06 75.1188C159.06 64.4496 151.405 55.539 141.3 53.5796C142.072 51.6544 142.472 49.5907 142.472 47.473C142.472 40.7146 138.366 34.8987 132.518 32.385C122.774 24.6248 112.118 20 103.941 20C99.3958 20 95.3651 22.2352 92.8828 25.6619C90.8094 28.5242 90.291 33.6501 90.291 33.6501V67.1882L90.2911 77.8834L90.291 140.183V155.292C90.291 161.512 92.8828 166.29 92.8828 166.29C96.3385 172.225 105.325 180 114.999 180C123.824 180 131.894 175.336 136.325 167.754C146.51 164.511 153.531 154.995 153.531 144.233C153.531 143.24 153.471 142.246 153.352 141.26C160.239 137.405 164.589 130.095 164.589 122.117C164.589 117.612 163.251 113.335 160.714 109.667C163.155 106.131 164.589 101.848 164.589 97.2354ZM147.953 140.313C147.71 139.122 148.329 137.922 149.44 137.428C155.494 134.736 159.405 128.726 159.405 122.117C159.405 119.11 158.626 116.237 157.138 113.692C153.269 117.103 148.196 119.179 142.645 119.179C141.214 119.179 140.053 118.019 140.053 116.587C140.053 115.156 141.214 113.996 142.645 113.996C151.887 113.996 159.405 106.477 159.405 97.2354C159.405 92.2606 157.21 87.5718 153.383 84.3729C152.519 83.6506 152.22 82.4536 152.644 81.4099C153.462 79.3932 153.876 77.2765 153.876 75.1188C153.876 65.8771 146.358 58.3585 137.116 58.3585C127.874 58.3585 120.356 65.8771 120.356 75.1188C120.356 76.5505 119.195 77.7106 117.764 77.7106C116.333 77.7106 115.172 76.5505 115.172 75.1188C115.172 63.493 124.261 53.9549 135.706 53.2251C136.744 51.491 137.289 49.5191 137.289 47.473C137.289 42.8527 134.484 38.8765 130.488 37.1542C130.334 37.1083 130.183 37.0485 130.037 36.9724C128.799 36.5018 127.458 36.2419 126.058 36.2419C121.718 36.2419 117.845 38.6682 115.948 42.5745C115.322 43.8625 113.772 44.3991 112.484 43.7736C111.196 43.1489 110.659 41.5983 111.285 40.3103C113.45 35.8514 117.548 32.6462 122.268 31.5114C115.653 27.4751 109.141 25.1836 103.941 25.1836C99.2728 25.1836 95.4746 28.9814 95.4746 33.6501V56.1299C97.8034 54.2825 100.745 53.1749 103.941 53.1749C105.372 53.1749 106.533 54.335 106.533 55.7667C106.533 57.1984 105.372 58.3585 103.941 58.3585C99.2728 58.3585 95.4746 62.1564 95.4746 66.8251V155.292C95.4746 166.058 104.233 174.816 114.999 174.816C122.266 174.816 128.888 170.81 132.281 164.361C132.617 163.722 133.204 163.253 133.901 163.065C142.407 160.776 148.347 153.032 148.347 144.234C148.347 142.917 148.214 141.598 147.953 140.313Z" fill="#4185B9"/>
<path d="M137.116 102.937C131.747 102.937 127.249 99.1496 126.146 94.1066C136.902 92.7029 145.237 83.4869 145.237 72.3542C145.237 70.9225 144.077 69.7625 142.645 69.7625C141.214 69.7625 140.053 70.9225 140.053 72.3542C140.053 81.5959 132.535 89.1145 123.293 89.1145C118.751 89.1145 114.499 87.3275 111.32 84.0826C110.319 83.0604 108.678 83.0435 107.655 84.0453C106.633 85.0471 106.616 86.6879 107.618 87.7104C111.212 91.3794 115.856 93.6208 120.886 94.1647C122.076 102.054 128.9 108.121 137.116 108.121C138.547 108.121 139.708 106.961 139.708 105.529C139.708 104.097 138.547 102.937 137.116 102.937Z" fill="#4185B9"/>
<path d="M128.822 133.348C127.824 133.348 126.842 133.421 125.878 133.551C125.881 133.426 125.885 133.3 125.885 133.175C125.885 121.075 116.041 111.231 103.941 111.231C102.51 111.231 101.349 112.391 101.349 113.823C101.349 115.255 102.51 116.415 103.941 116.415C113.183 116.415 120.701 123.933 120.701 133.175C120.701 133.767 120.67 134.362 120.608 134.949C112.567 138.208 106.879 146.096 106.879 155.292C106.879 156.723 108.039 157.883 109.47 157.883C110.902 157.883 112.062 156.723 112.062 155.292C112.062 146.05 119.581 138.531 128.822 138.531C130.254 138.531 131.414 137.371 131.414 135.94C131.414 134.508 130.254 133.348 128.822 133.348Z" fill="#4185B9"/>
</svg>
