<svg width="200" height="200" viewBox="0 0 200 200" fill="none" xmlns="http://www.w3.org/2000/svg">
<path d="M139.033 81.8751L152.306 59.018C153.055 57.7366 152.602 56.1089 151.33 55.3643C150.059 54.6197 148.404 55.0526 147.672 56.334L134.226 79.4855C123.967 74.8275 112.419 72.2301 99.9999 72.2301C87.5811 72.2301 76.033 74.8275 65.7739 79.4855L52.3274 56.334C51.5784 55.0526 49.9412 54.6197 48.6522 55.3643C47.3633 56.1089 46.9279 57.7366 47.6768 59.018L60.9492 81.8751C38.0622 94.2042 22.5604 117.235 20 144.195H180C177.44 117.234 161.938 94.204 139.033 81.8751H139.033ZM63.2658 121.858C59.5558 121.858 56.5599 118.862 56.5599 115.191C56.5599 111.503 59.5732 108.525 63.2658 108.525C66.9758 108.525 69.9716 111.52 69.9716 115.191C69.9891 118.862 66.9758 121.858 63.2658 121.858ZM136.717 121.858C133.007 121.858 130.011 118.862 130.011 115.191C130.011 111.503 133.024 108.525 136.717 108.525C140.427 108.525 143.423 111.52 143.423 115.191C143.44 118.862 140.427 121.858 136.717 121.858Z" fill="#4185B9"/>
</svg>
