<svg width="200" height="200" viewBox="0 0 200 200" fill="none" xmlns="http://www.w3.org/2000/svg">
<path d="M37.5062 109.824C38.5411 110.059 39.6231 110.248 40.6581 110.389C46.9619 111.377 53.5009 111.612 59.8046 111.518H140.248C146.552 111.565 153.091 111.377 159.395 110.389C160.477 110.201 161.512 110.012 162.547 109.824C168.616 108.507 174.308 106.249 177.46 102.533C179.341 100.274 180.282 97.4989 179.859 94.1118C179.718 92.4182 179.435 90.8187 179.059 89.2193C178.683 87.6198 178.259 85.9733 177.883 84.2797C176.284 77.5996 172.849 63.6278 171.814 59.7232C170.874 56.1949 170.309 54.4073 169.745 52.8549C166.922 46.3629 159.254 43.3522 151.163 42.0349C143.918 40.953 133.898 41.047 125.853 41H72.9297C64.8853 41.047 56.0412 40.9059 48.7965 42.0349C40.7051 43.3992 33.0371 46.3629 30.2145 52.8549C29.6029 54.4073 29.0384 56.1949 28.1446 59.7232C27.1096 63.5807 23.7225 77.5996 22.076 84.2797C21.6526 85.9733 21.2292 87.6198 20.8999 89.2193C20.5236 90.8187 20.2413 92.4182 20.1002 94.1118C19.6768 97.5459 20.6177 100.321 22.4994 102.533C25.6983 106.296 31.3906 108.554 37.5062 109.824ZM116.021 68.9907L122.231 77.6937H122.325L127.265 68.9907H131.875L124.865 79.9047H119.973L111.364 68.9907H116.021ZM96.8747 68.9907H100.168V66.4504H104.637L104.684 68.9437H108.965L109.012 70.6372H104.684L104.778 76.7999C104.778 77.7407 105.672 78.2112 107.601 78.2112C108.118 78.2112 108.683 78.1641 109.2 78.1641L109.247 79.9518C108.4 79.9988 107.506 80.0458 106.613 80.0458C102.002 80.0458 100.215 79.1991 100.215 77.0351V70.6843H96.8276L96.8747 68.9907V68.9907ZM83.4203 65.7447C84.6434 65.0861 86.337 64.7098 88.1246 64.6157C88.2187 65.4625 87.6072 66.3092 86.384 66.9678C85.208 67.6264 83.4203 68.0498 81.5856 68.0028C81.5386 67.2031 82.1972 66.4033 83.4203 65.7447V65.7447ZM69.7778 70.1668C71.2361 69.0377 73.7765 68.285 76.552 68.285C78.6219 68.285 80.5036 68.9437 81.7738 68.9437C83.044 68.9437 85.3021 68.191 87.9365 68.238C90.2416 68.2851 92.4056 68.8496 93.7228 69.7434C91.6058 70.355 90.2416 71.4369 90.1475 72.6601C90.1005 74.0243 91.794 75.2945 94.4284 75.812C93.911 76.6117 93.1112 77.3644 92.1233 78.07C90.712 79.105 89.1596 80.0458 86.9956 80.0458C84.7846 80.0458 84.0789 79.3872 81.5856 79.3872C79.0923 79.3872 78.3397 79.9988 76.1286 80.0458C73.9176 80.0929 72.3652 78.9638 71.048 78.023C68.3665 76.0001 66.6729 72.4719 69.7778 70.1668ZM180 105.92V138.426C180 158.326 156.431 158.373 140.531 158.655H59.4753C43.6218 158.326 20.0531 158.279 20.0531 138.379V105.967C20.0531 105.873 20.1472 105.873 20.1943 105.92C22.7817 109.354 27.5801 112.506 36.5183 114.434C42.3046 115.658 49.2199 116.269 57.6877 116.269H142.271C150.739 116.269 157.702 115.658 163.488 114.434C172.473 112.506 177.271 109.307 179.812 105.826C179.906 105.778 180 105.826 180 105.92V105.92Z" fill="#4185B9"/>
</svg>
