<svg width="324" height="57" viewBox="0 0 324 57" fill="none" xmlns="http://www.w3.org/2000/svg">
<g clip-path="url(#clip0_6_177)">
<path d="M0.333923 0V56.2324H56.8252V0H0.333923ZM35.8654 34.3712L34.6545 31.7113H34.6963L28.7674 18.4532L22.7968 31.7113H22.8803L21.7112 34.3712H21.6695L18.5798 41.2704H15.5736L27.4731 15.0452H30.2288L38.7045 33.6647L36.1994 34.953L35.8654 34.3712ZM39.5813 41.2704C38.4123 41.2704 37.452 40.3145 37.452 39.1507C37.452 37.987 38.4123 37.0311 39.5813 37.0311C40.7504 37.0311 41.7107 37.987 41.7107 39.1507C41.7107 40.3145 40.7504 41.2704 39.5813 41.2704Z" fill="#040F17"/>
<path d="M81.5846 14.8789H71.8145V40.8962H74.7789V31.7112H81.1253C86.6784 31.7112 91.3964 28.8019 91.3964 23.1911V23.108C91.3964 17.996 87.5134 14.8789 81.5846 14.8789ZM88.3902 23.3158C88.3902 26.7238 85.5511 29.0513 81.2088 29.0513H74.7371V17.5803H81.334C85.5511 17.5803 88.3485 19.5337 88.3485 23.2327V23.3158H88.3902Z" fill="#040F17"/>
<path d="M111.187 14.8789H101.417V40.8962H104.381V31.7112H110.728C116.281 31.7112 120.999 28.8019 120.999 23.1911V23.108C120.957 17.996 117.074 14.8789 111.187 14.8789ZM117.993 23.3158C117.993 26.7238 115.154 29.0513 110.811 29.0513H104.34V17.5803H110.937C115.154 17.5803 117.951 19.5337 117.951 23.2327V23.3158H117.993Z" fill="#040F17"/>
<path d="M151.771 22.6512V22.568C151.771 20.5315 151.019 18.7028 149.766 17.4144C148.138 15.7935 145.549 14.7961 142.335 14.7961H131.103V40.8134H134.068V30.7972H141.541L149.14 40.8966H152.773L144.756 30.2569C148.764 29.5088 151.771 26.9735 151.771 22.6512ZM134.026 28.1372V17.5807H142.084C146.301 17.5807 148.764 19.5341 148.764 22.6927V22.7758C148.764 26.1423 145.967 28.1372 142.042 28.1372H134.026Z" fill="#040F17"/>
<path d="M166.092 29.0928H180.371V26.4329H166.092V17.5388H182.041V14.8789H163.127V40.8962H182.25V38.2363H166.092V29.0928Z" fill="#040F17"/>
<path d="M212.061 35.7426L195.569 14.8789H192.813V40.8962H195.694V19.5337L212.604 40.8962H214.942V14.8789H212.061V35.7426Z" fill="#040F17"/>
<path d="M225.506 17.5803H234.315V40.8962H237.28V17.5803H246.09V14.8789H225.506V17.5803Z" fill="#040F17"/>
<path d="M259.618 14.8789H256.653V40.8962H259.618V14.8789Z" fill="#040F17"/>
<path d="M307.466 38.2363V29.0928H321.745V26.4329H307.466V17.5388H323.415V14.8789H304.543V40.8962H323.624V38.2363H307.466Z" fill="#040F17"/>
<path d="M284.043 17.1233C287.592 17.1233 290.055 18.6195 292.268 20.6976L294.272 18.5364C291.642 16.0843 288.803 14.4219 284.085 14.4219C277.613 14.4219 272.686 18.7442 271.267 24.4797H274.398C275.651 20.1573 279.366 17.1233 284.043 17.1233Z" fill="#040F17"/>
<path d="M284.043 38.6107C279.325 38.6107 275.567 35.452 274.356 31.005H271.183C272.477 36.9482 277.488 41.3122 283.959 41.3122C288.719 41.3122 291.684 39.4835 294.439 36.7404L292.477 34.8286C289.972 37.2392 287.633 38.6107 284.043 38.6107Z" fill="#040F17"/>
<path d="M39.5811 41.2288C40.7571 41.2288 41.7105 40.2798 41.7105 39.1092C41.7105 37.9385 40.7571 36.9896 39.5811 36.9896C38.4051 36.9896 37.4517 37.9385 37.4517 39.1092C37.4517 40.2798 38.4051 41.2288 39.5811 41.2288Z" fill="white"/>
<path d="M34.6962 31.6695H34.6545L35.8236 34.3295H35.8653L36.1158 34.9113L38.6627 33.5814L30.187 15.0035H27.4313L15.4901 41.2286H18.538L21.6277 34.3295H21.6694L22.8385 31.6695H22.7968L28.7674 18.4115L34.6962 31.6695Z" fill="white"/>
</g>
<defs>
<clipPath id="clip0_6_177">
<rect width="324" height="56.5234" fill="white"/>
</clipPath>
</defs>
</svg>
