<svg width="200" height="200" viewBox="0 0 200 200" fill="none" xmlns="http://www.w3.org/2000/svg">
<path d="M168.686 54.1095C169.489 54.5 170.175 55.1499 170.605 56.0113C170.626 56.0522 170.646 56.0931 170.665 56.1354C170.706 56.2256 170.744 56.3186 170.781 56.4117C170.974 56.9277 171.06 57.4577 171.05 57.9794V87.3678C171.05 89.6939 169.165 91.5788 166.842 91.5788C164.519 91.5788 162.634 89.6939 162.634 87.3678V64.707L143.48 74.2922C141.401 75.3326 138.874 74.4896 137.836 72.4087C136.796 70.3293 137.638 67.8 139.716 66.7599L157.435 57.8954L139.716 49.0294C137.638 47.989 136.796 45.4599 137.836 43.3806C138.874 41.3011 141.401 40.4581 143.48 41.4971L168.686 54.1095ZM171.05 142.022C171.063 142.639 170.939 143.27 170.665 143.866C170.458 144.314 170.175 144.725 169.826 145.076C169.472 145.428 169.093 145.693 168.686 145.892L143.48 158.504C141.401 159.544 138.874 158.701 137.835 156.622C136.796 154.541 137.638 152.012 139.716 150.973L157.435 142.107L139.716 133.241C137.638 132.202 136.796 129.673 137.835 127.592C138.874 125.513 141.401 124.669 143.48 125.71L162.634 135.294V112.633C162.634 110.308 164.519 108.423 166.842 108.423C169.165 108.423 171.05 110.308 171.05 112.633L171.05 142.022ZM41.6162 142.107L59.3336 150.973C61.4128 152.012 62.2552 154.541 61.2156 156.621C60.176 158.701 57.6488 159.544 55.571 158.503L30.3648 145.892C29.5618 145.5 28.8758 144.851 28.4447 143.99C28.425 143.949 28.4053 143.907 28.3856 143.866C28.3447 143.776 28.3053 143.683 28.27 143.59C28.0756 143.074 27.9897 142.543 28.001 142.022V112.632C28.001 110.307 29.8844 108.422 32.2088 108.422C34.5318 108.422 36.4152 110.307 36.4152 112.632V135.293L55.5708 125.709C57.6486 124.669 60.1761 125.512 61.2154 127.591C62.255 129.672 61.4126 132.201 59.3333 133.24L41.6162 142.107ZM36.4152 64.7072V87.368C36.4152 89.6941 34.5317 91.579 32.2088 91.579C29.8844 91.579 28.0009 89.6941 28.0009 87.368V57.9796C27.9882 57.3608 28.1108 56.732 28.3855 56.1356C28.5912 55.6873 28.8757 55.2771 29.2251 54.926C29.5787 54.5736 29.9562 54.3086 30.3648 54.1098L55.571 41.4966C57.6488 40.4576 60.1763 41.3006 61.2156 43.38C62.2552 45.4595 61.4128 47.9888 59.3335 49.0289L41.6161 57.8949L59.3335 66.7594C61.4128 67.7998 62.2552 70.3289 61.2156 72.4082C60.176 74.4891 57.6487 75.3321 55.571 74.2917L36.4152 64.7072ZM97.5672 20.4821C98.1519 20.1734 98.8182 20 99.5239 20C100.231 20 100.897 20.1734 101.482 20.4821L126.65 33.0759C128.728 34.1163 129.57 36.6454 128.532 38.7247C127.493 40.8041 124.965 41.6472 122.888 40.6082L103.732 31.023V53.6837C103.732 56.0085 101.848 57.8948 99.5241 57.8948C97.2012 57.8948 95.3177 56.0085 95.3177 53.6837V31.023L76.1621 40.6082C74.0843 41.6472 71.5569 40.8042 70.5175 38.7247C69.4779 36.6453 70.3203 34.116 72.3996 33.0759L97.5672 20.4821ZM101.482 179.518C100.897 179.825 100.231 180 99.5238 180C98.818 180 98.1517 179.825 97.5671 179.518L72.399 166.924C70.3198 165.884 69.4773 163.355 70.517 161.275C71.5566 159.194 74.0838 158.351 76.1616 159.392L95.3172 168.977V146.316C95.3172 143.99 97.2006 142.105 99.5235 142.105C101.848 142.105 103.731 143.99 103.731 146.316V168.977L122.887 159.392C124.965 158.351 127.492 159.194 128.532 161.275C129.57 163.355 128.727 165.884 126.65 166.924L101.482 179.518ZM103.732 94.1822V116.843C103.732 119.168 101.848 121.054 99.5238 121.054C97.2008 121.054 95.3174 119.168 95.3174 116.843V94.1822L72.399 82.7138C70.3197 81.6748 69.4773 79.1457 70.5169 77.0649C71.5565 74.9855 74.0837 74.1425 76.1615 75.1829L99.5235 86.8729L122.887 75.1829C124.965 74.1425 127.492 74.9855 128.531 77.0649C129.57 79.1458 128.727 81.6748 126.649 82.7138L103.732 94.1822Z" fill="#4185B9"/>
</svg>
