<svg width="324" height="66" viewBox="0 0 324 66" fill="none" xmlns="http://www.w3.org/2000/svg">
<path fill-rule="evenodd" clip-rule="evenodd" d="M31.3745 0.120741C32.4437 0.123961 33.5113 0.123961 34.5789 0.120741C39.1732 0.107863 52.4669 0.622984 58.8076 6.71752C65.3638 13.0197 65.7914 27.2741 65.7688 31.4804C65.7655 32.2756 65.7655 33.0692 65.7688 33.8628C65.7914 38.0707 65.3638 52.3267 58.8076 58.6273C52.4669 64.7219 39.1732 65.237 34.5789 65.2241C33.5097 65.2209 32.4437 65.2209 31.3745 65.2241C26.7818 65.237 13.4881 64.7219 7.14582 58.6273C0.589681 52.3251 0.163621 38.0707 0.184681 33.8628C0.189541 33.0692 0.189541 32.2756 0.184681 31.4804C0.162001 27.2725 0.589681 13.0197 7.14582 6.71913C13.4881 0.622984 26.7802 0.107863 31.3745 0.120741Z" fill="#1C1C1C"/>
<path fill-rule="evenodd" clip-rule="evenodd" d="M52.4637 49.3326L45.2871 16.1555C45.2023 15.7665 44.986 15.418 44.6741 15.1682C44.3623 14.9184 43.9737 14.7822 43.5731 14.7824H22.6881C21.5703 14.7824 20.7392 15.8046 20.9725 16.8879L28.0033 49.3825C28.0644 49.6628 28.2201 49.9138 28.4447 50.094C28.6693 50.2741 28.9492 50.3724 29.2378 50.3725H32.5118C33.0626 50.3725 33.4741 49.867 33.359 49.3326L32.7596 46.559C32.7065 46.3133 32.7093 46.059 32.7679 45.8146C32.8264 45.5702 32.9393 45.3419 33.0982 45.1465C33.2572 44.9511 33.4581 44.7935 33.6862 44.6853C33.9144 44.577 34.1641 44.5209 34.4169 44.521H44.6861C45.4847 44.521 46.1765 45.0748 46.345 45.8507L47.1064 49.376C47.1675 49.6583 47.3242 49.9112 47.5503 50.0925C47.7765 50.2739 48.0583 50.3727 48.3489 50.3725H51.6181C52.1689 50.3725 52.5787 49.867 52.4637 49.3326V49.3326Z" fill="white"/>
<path fill-rule="evenodd" clip-rule="evenodd" d="M20.4331 16.7093C20.4138 16.5868 20.4095 16.4625 20.4201 16.339L13.284 49.3326C13.257 49.4579 13.2585 49.5876 13.2884 49.7123C13.3183 49.837 13.3759 49.9534 13.457 50.0531C13.5381 50.1528 13.6405 50.2333 13.7569 50.2885C13.8733 50.3438 14.0007 50.3725 14.1297 50.3725H17.3988C17.9982 50.3725 18.5166 49.9572 18.6414 49.376L19.4028 45.8507C19.5712 45.0748 20.2614 44.521 21.0616 44.521H23.3134L20.4331 16.7109V16.7093Z" fill="#797A78"/>
<path fill-rule="evenodd" clip-rule="evenodd" d="M130.091 26.0781C127.11 26.0781 124.67 27.3482 123.141 29.6759V14.8468H117.998V50.3628H123.141V37.3785C123.141 33.0209 125.09 30.6208 128.63 30.6208C132.169 30.6208 134.118 33.0193 134.118 37.3785V50.3645H139.26V36.4433C139.26 29.9527 135.832 26.0781 130.091 26.0781V26.0781ZM158.943 39.1589V40.5111C158.943 44.6096 155.413 46.4753 152.134 46.4753C149.672 46.4753 148.201 45.4354 148.201 43.6936C148.201 41.3546 150.95 40.8862 154.13 40.3453C155.803 40.0588 157.53 39.7658 158.943 39.1589V39.1589ZM153.973 26.0765C147.522 26.0765 143.671 29.2686 143.671 34.6162V34.8287H149.001V34.6162C149.001 31.8796 150.859 30.2441 153.975 30.2441C156.936 30.2441 158.851 31.5577 158.851 33.5876C158.851 35.6481 156.123 36.0408 152.964 36.4964C148.509 37.1387 142.967 37.9371 142.967 43.9753C142.967 49.0348 147.397 50.8313 151.193 50.8313C154.663 50.8313 157.381 49.4887 158.943 47.029V50.3628H163.991V33.7743C163.991 28.9547 160.246 26.0765 153.973 26.0765V26.0765ZM168.704 50.3628H173.844V14.8468H168.704V50.3628V50.3628ZM189.388 37.4317L200.692 26.5433H193.805L183.977 36.6204V14.8452H178.835V50.3612H183.977V38.3927L194.374 50.3612H200.946L189.388 37.4301V37.4317ZM222.763 38.4539C222.763 42.9564 219.905 46.1002 215.813 46.1002C211.721 46.1002 208.862 42.9564 208.862 38.4539C208.862 33.9498 211.721 30.8059 215.813 30.8059C219.905 30.8059 222.763 33.9498 222.763 38.4523V38.4539ZM216.379 26.0765C213.427 26.0765 210.781 27.3401 208.862 29.6469V14.8468H203.72V50.3628H208.862V47.2592C210.781 49.5676 213.427 50.8313 216.379 50.8313C223.056 50.8313 227.905 45.6253 227.905 38.4523C227.905 31.2824 223.056 26.0765 216.379 26.0765ZM250.083 38.4539C250.083 42.9564 247.206 46.1002 243.084 46.1002C238.965 46.1002 236.087 42.9564 236.087 38.4539C236.087 33.9498 238.965 30.8059 243.084 30.8059C247.206 30.8059 250.083 33.9498 250.083 38.4523V38.4539ZM243.084 26.0765C236.05 26.0765 230.946 31.2808 230.946 38.4539C230.946 45.6253 236.05 50.8313 243.084 50.8313C250.118 50.8313 255.225 45.6253 255.225 38.4523C255.225 31.2824 250.118 26.0765 243.084 26.0765ZM273.929 39.1589V40.5111C273.929 44.6096 270.397 46.4753 267.12 46.4753C264.656 46.4753 263.185 45.4354 263.185 43.6936C263.185 41.3546 265.931 40.8862 269.114 40.3453C270.789 40.0588 272.516 39.7658 273.929 39.1589V39.1589ZM268.957 26.0765C262.506 26.0765 258.656 29.2686 258.656 34.6162V34.8287H263.987V34.6162C263.987 31.8378 265.798 30.2441 268.957 30.2441C271.919 30.2441 273.832 31.5577 273.832 33.5876C273.832 35.6481 271.105 36.0408 267.946 36.4964C263.491 37.1387 257.951 37.9371 257.951 43.9753C257.951 49.0348 262.383 50.8313 266.177 50.8313C269.649 50.8313 272.367 49.4887 273.929 47.029V50.3628H278.975V33.7743C278.975 28.9547 275.228 26.0765 268.957 26.0765V26.0765ZM298.195 26.2229C297.822 26.1296 297.251 26.0781 296.633 26.0781C293.249 26.0781 290.455 27.5349 288.692 30.2039V26.5449H283.552V50.3645H288.692V38.4088C288.692 33.8033 291.096 31.3693 295.647 31.3693C296.518 31.3693 297.359 31.4949 298.077 31.7315L298.359 31.8249V26.2648L298.195 26.2245V26.2229ZM318.635 38.4539C318.635 42.9564 315.774 46.1002 311.685 46.1002C307.591 46.1002 304.732 42.9564 304.732 38.4539C304.732 33.9498 307.591 30.8059 311.685 30.8059C315.774 30.8059 318.635 33.9498 318.635 38.4523V38.4539ZM318.635 14.8468V29.6485C316.715 27.3401 314.068 26.0765 311.118 26.0765C304.439 26.0765 299.591 31.2808 299.591 38.4539C299.591 45.6253 304.439 50.8313 311.118 50.8313C314.068 50.8313 316.715 49.5676 318.635 47.2576V50.3645H323.775V14.8452H318.635V14.8468ZM108.508 38.1528L108.462 38.507C107.847 43.2268 104.574 46.1598 99.9265 46.1598C94.0361 46.1598 90.5191 41.4206 90.5191 33.4813C90.5191 25.542 94.0864 20.8013 100.064 20.8013C104.762 20.8013 107.926 23.657 108.321 28.2545L108.354 28.6247H113.543L113.518 28.1965C113.118 20.8753 107.837 16.1443 100.064 16.1443C90.9419 16.1443 85.2736 22.7877 85.2736 33.4813C85.2736 44.1749 90.8885 50.8184 99.9265 50.8184C107.826 50.8184 112.974 46.2483 113.701 38.5971L113.743 38.1528H108.508Z" fill="#1C1C1C"/>
</svg>
