<svg width="200" height="200" viewBox="0 0 200 200" fill="none" xmlns="http://www.w3.org/2000/svg">
<path d="M167.694 81.6415C165.666 82.9024 165.038 85.5652 166.299 87.5958C169.605 92.9191 171.352 99.0149 171.352 105.22C171.352 123.7 156.318 138.734 137.838 138.734C127.803 138.734 118.381 134.29 111.983 126.544C110.463 124.702 107.741 124.442 105.897 125.962C104.054 127.483 103.795 130.208 105.315 132.048C113.363 141.795 125.215 147.383 137.838 147.383C161.086 147.383 180 128.469 180 105.22C180 97.3995 177.802 89.7281 173.648 83.034C172.387 81.0046 169.716 80.3795 167.693 81.6416L167.694 81.6415Z" fill="#4185B9"/>
<path d="M137.837 71.7079C141.026 71.7079 144.188 72.1724 147.237 73.0653L139.379 76.4015C137.181 77.3354 136.155 79.8715 137.087 82.0711C137.785 83.7192 139.385 84.7086 141.07 84.7086C141.635 84.7086 142.205 84.5964 142.757 84.3624L159.645 77.1954C161.843 76.2615 162.869 73.7254 161.938 71.5258L154.771 54.6374C153.837 52.439 151.298 51.4111 149.101 52.3449C146.903 53.2788 145.877 55.8149 146.809 58.0144L149.675 64.7712C145.84 63.6455 141.859 63.0591 137.838 63.0591C114.589 63.0591 95.6753 81.9732 95.6753 105.222C95.6753 123.701 80.6414 138.735 62.1616 138.735C43.6818 138.735 28.6478 123.701 28.6478 105.222C28.6478 86.7417 43.6818 71.7078 62.1616 71.7078C72.1965 71.7078 81.6187 76.1517 88.0172 83.8978C89.5399 85.7439 92.2631 86.0021 94.1031 84.4794C95.9455 82.9591 96.2049 80.2335 94.6847 78.3935C86.6367 68.6467 74.7846 63.059 62.1624 63.059C38.9141 63.059 20 81.9731 20 105.221C20 128.47 38.9141 147.384 62.1624 147.384C85.4108 147.384 104.325 128.47 104.325 105.221C104.325 86.7417 119.359 71.7077 137.839 71.7077L137.837 71.7079Z" fill="#4185B9"/>
</svg>
