<svg width="200" height="200" viewBox="0 0 200 200" fill="none" xmlns="http://www.w3.org/2000/svg">
<path d="M88.3004 111.066L91.5817 107.558C91.9287 107.188 91.906 106.598 91.5213 106.258L84.6871 100.233L91.5213 94.2077C91.906 93.8675 91.9362 93.2778 91.5817 92.9074L88.3004 89.3996C87.9609 89.0367 87.3876 89.0141 87.018 89.3618L76.1481 99.5677C75.7634 99.923 75.7634 100.535 76.1481 100.891L87.018 111.104C87.3876 111.452 87.9609 111.437 88.3004 111.066ZM112.982 111.112L123.852 100.898C124.236 100.543 124.236 99.9305 123.852 99.5752L112.982 89.3543C112.62 89.0141 112.047 89.0292 111.7 89.3921L108.418 92.8998C108.071 93.2703 108.094 93.8599 108.479 94.2001L115.313 100.233L108.479 106.258C108.094 106.598 108.064 107.188 108.418 107.558L111.7 111.066C112.039 111.437 112.612 111.452 112.982 111.112Z" fill="#4185B9"/>
<path d="M92.2982 118.21L96.8996 119.548C97.3824 119.692 97.8803 119.412 98.0236 118.928L108.32 83.3818C108.456 82.898 108.184 82.3915 107.702 82.2554L103.1 80.9173C102.617 80.7812 102.112 81.0534 101.976 81.5372L91.6797 117.084C91.5439 117.568 91.8155 118.074 92.2982 118.21Z" fill="#4185B9"/>
<path d="M164.282 133.29V62.6786C164.291 62.0725 164.18 61.4707 163.955 60.9075C163.731 60.3444 163.399 59.8309 162.976 59.3965C162.554 58.9621 162.05 58.6152 161.493 58.3757C160.937 58.1361 160.339 58.0086 159.733 58.0004H40.3608C39.7551 57.9921 39.1538 58.1033 38.5911 58.3276C38.0284 58.5519 37.5154 58.885 37.0813 59.3077C36.6472 59.7305 36.3006 60.2347 36.0612 60.7915C35.8219 61.3483 35.6945 61.9469 35.6863 62.553V133.29H20V137.78C21.9765 141.014 32.8627 142.71 37.098 142.71H161.678C165.976 142.71 177.992 141.014 180 137.78V133.29H164.282ZM41.9294 64.217H158.039V133.29H41.9294V64.217Z" fill="#4185B9"/>
</svg>
