<svg width="324" height="122" viewBox="0 0 324 122" fill="none" xmlns="http://www.w3.org/2000/svg">
<path d="M45.5369 60.6067C45.5369 68.7968 38.9848 75.3488 30.7947 75.3488C22.6047 75.3488 16.0526 68.7968 16.0526 60.6067C16.0526 52.4166 22.6047 45.8645 30.7947 45.8645H45.5369V60.6067ZM61.9171 0H45.5369V29.8119C39.9676 29.8119 34.3984 29.8119 30.7947 29.8119C13.7594 29.8119 0 43.5713 0 60.6067C0 77.6421 13.7594 91.4014 30.7947 91.4014C47.8301 91.4014 61.5895 77.6421 61.5895 60.6067C61.5895 52.089 61.5895 29.8119 61.5895 29.8119L61.9171 0Z" fill="#231F20"/>
<path d="M224.736 75.3488C232.926 75.3488 239.478 68.7968 239.478 60.6067C239.478 52.4166 232.926 45.8645 224.736 45.8645C216.546 45.8645 209.994 52.4166 209.994 60.6067C210.322 68.7968 216.874 75.3488 224.736 75.3488ZM194.269 60.6067C194.269 43.5713 208.028 29.8119 225.064 29.8119C242.099 29.8119 255.858 43.5713 255.858 60.6067C255.858 77.6421 242.099 91.4014 225.064 91.4014C208.028 91.4014 194.269 77.6421 194.269 60.6067Z" fill="#231F20"/>
<path d="M307.292 60.6067C307.292 52.7442 300.74 46.1921 292.878 46.1921C285.015 46.1921 278.463 52.7442 278.463 60.6067C278.463 64.5379 278.463 90.091 278.463 90.091C270.273 90.091 262.41 90.091 262.41 90.091C262.41 90.091 262.41 69.1244 262.41 60.6067C262.41 43.5713 276.17 29.8119 293.205 29.8119C310.241 29.8119 324 43.5713 324 60.6067C324 69.1244 324 90.091 324 90.091C324 90.091 316.137 90.091 307.947 90.091C307.292 90.091 307.292 64.5379 307.292 60.6067Z" fill="#231F20"/>
<path d="M156.595 50.1233C154.301 48.4853 154.957 45.8645 158.888 44.8817C163.802 43.5713 172.32 44.5541 179.527 47.8301L187.062 37.3468C183.786 34.726 176.578 31.1223 166.095 30.4671C166.095 30.4671 148.404 28.1739 141.197 41.6056C141.197 41.6056 134.973 54.0546 147.422 61.9171C154.957 66.5035 168.061 68.4692 172.32 70.4348C175.596 72.4004 174.613 76.004 169.699 76.9868C161.181 78.9525 150.042 74.0384 146.439 71.4176L138.576 82.2285C143.818 86.1597 150.37 89.7634 160.853 91.4014C160.853 91.4014 177.561 94.3498 186.734 82.8837C188.372 80.9181 195.907 66.8311 180.837 58.641C172.975 54.3822 160.526 52.4166 156.595 50.1233Z" fill="#231F20"/>
<path d="M81.2457 101.885C81.9009 102.212 89.4358 107.454 96.643 107.454C114.334 107.782 115.316 89.4358 115.316 85.1769C112.04 88.7806 105.161 91.0738 100.902 91.0738C83.8665 91.0738 70.4348 77.9697 70.4348 60.9343C70.4348 52.4166 70.4348 31.1223 70.4348 31.1223C70.4348 31.1223 78.2972 31.1223 86.4873 31.1223C86.4873 31.1223 86.4873 57.3306 86.4873 60.9343C86.4873 68.7968 93.0394 75.3488 100.902 75.3488C108.764 75.3488 115.316 68.7968 115.316 60.9343C115.316 57.6582 115.316 31.1223 115.316 31.1223C123.507 31.1223 131.369 31.1223 131.369 31.1223V60.9343C131.369 87.4702 132.679 114.661 106.799 120.886C87.4701 125.472 73.7108 113.351 72.728 112.696L81.2457 101.885Z" fill="#231F20"/>
</svg>
