<svg width="324" height="143" viewBox="0 0 324 143" fill="none" xmlns="http://www.w3.org/2000/svg">
<g clip-path="url(#clip0_6_132)">
<path d="M303.203 19.9077V0H294.613V28.3963H294.789V28.4721H323.161V19.9077H303.203Z" fill="#A71930"/>
<path d="M303.225 122.199H323.131V113.634H294.736V113.811H294.66V142.182H303.225V122.199Z" fill="#A71930"/>
<path d="M19.9835 19.9077V0H28.5479V28.3963H28.371V28.4721H0V19.9077H19.9835Z" fill="#A71930"/>
<path d="M19.9314 122.199H0.0236511V113.634H28.4199V113.811H28.521V142.182H19.9314V122.199Z" fill="#A71930"/>
<path d="M241.613 82.9183C240.299 80.7202 238.935 78.5476 237.57 76.375C237.394 76.097 237.394 75.9959 237.722 75.8445C239.061 75.1877 240.122 74.1769 240.88 72.9391C242.901 69.6297 242.926 64.7285 241.006 61.3938C240.248 60.0548 239.086 59.12 237.772 58.3621C235.953 57.3011 233.882 56.9977 231.861 56.9474C227.894 56.8208 223.903 56.922 219.936 56.8968C219.482 56.8968 219.355 57.0737 219.355 57.503C219.355 66.6232 219.355 75.7688 219.355 84.8889C219.355 85.3434 219.532 85.4446 219.936 85.4446C221.629 85.4194 223.296 85.4194 224.989 85.4446C225.469 85.4446 225.595 85.2932 225.57 84.8383C225.545 82.792 225.57 80.7708 225.57 78.7244C225.57 73.5201 225.57 68.3159 225.57 63.1116C225.57 62.8336 225.419 62.4799 225.974 62.4799C228.122 62.5054 230.269 62.4548 232.417 62.5556C233.427 62.6062 234.362 63.0359 235.17 63.7178C236.535 64.8294 236.787 67.7096 236.029 69.4023C235.297 71.0444 233.907 71.7012 232.24 71.8529C231.355 71.9286 230.471 71.9032 229.587 71.9032C229.082 71.9032 229.006 72.1054 229.208 72.5348C229.916 73.975 230.673 75.3645 231.431 76.7792C232.821 79.4572 234.286 82.1098 235.701 84.7878C235.827 85.0403 235.903 85.47 236.383 85.4446C238.455 85.4194 240.552 85.4446 242.623 85.4446C243.027 85.4446 243.027 85.2677 242.85 84.9897C242.472 84.2573 242.017 83.6005 241.613 82.9183Z" fill="#231F20"/>
<path d="M288.604 80.6924C288.629 80.0607 288.402 79.9344 287.795 79.9344C283.298 79.9596 278.801 79.9344 274.279 79.9596C273.623 79.9596 273.496 79.7827 273.496 79.1511C273.547 77.6101 273.547 76.0943 273.496 74.5533C273.471 73.9217 273.648 73.7954 274.254 73.8205C278.17 73.846 282.086 73.8205 286.002 73.846C286.583 73.846 286.81 73.7448 286.785 73.1132C286.734 71.8247 286.734 70.5112 286.785 69.2228C286.81 68.6668 286.633 68.5151 286.077 68.5151C282.086 68.5405 278.094 68.5151 274.077 68.5405C273.648 68.5405 273.496 68.4394 273.496 67.9846C273.521 66.3931 273.521 64.8015 273.496 63.21C273.496 62.654 273.597 62.4772 274.204 62.4772C278.675 62.5026 283.121 62.4772 287.593 62.5026C288.124 62.5026 288.301 62.3509 288.276 61.8204C288.25 60.4057 288.25 59.0161 288.276 57.6014C288.301 57.0455 288.124 56.8941 287.568 56.8941C281.101 56.9192 274.658 56.9192 268.191 56.8941C267.584 56.8941 267.408 57.0709 267.408 57.6772C267.433 62.1741 267.433 66.6456 267.433 71.1425C267.433 75.6649 267.433 80.2124 267.433 84.7345C267.433 85.1387 267.408 85.4167 268.014 85.4167C274.684 85.3913 281.353 85.3913 288.023 85.4167C288.477 85.4167 288.604 85.2904 288.579 84.8608C288.579 83.4461 288.553 82.0565 288.604 80.6924Z" fill="#231F20"/>
<path d="M102.763 57.4497C102.763 56.9949 102.586 56.8687 102.157 56.8687C100.59 56.8938 98.999 56.8938 97.4325 56.8687C96.8263 56.8432 96.6495 57.0201 96.6495 57.6266C96.6746 62.9571 96.6746 68.2877 96.6495 73.6183C96.6495 74.831 96.4472 76.0186 95.9167 77.1047C95.0325 78.8985 93.5421 79.909 91.546 80.0858C90.6367 80.1615 89.7271 80.1615 88.8178 79.8584C88.0093 79.5808 87.2765 79.2016 86.6703 78.6206C85.3567 77.3573 84.8259 75.7406 84.8008 73.9722C84.7757 68.5151 84.7757 63.0583 84.8008 57.6011C84.8008 56.9698 84.5988 56.8181 84.0177 56.8432C82.5019 56.8687 80.9861 56.8938 79.4702 56.8432C78.7629 56.8181 78.51 57.0455 78.51 57.8034C78.5355 62.5529 78.5355 67.3024 78.51 72.0267C78.51 74.0985 78.586 76.17 79.2174 78.1658C79.6471 79.6059 80.329 80.9195 81.3143 82.0059C82.527 83.3195 83.9672 84.3302 85.7355 84.9619C87.3019 85.5175 88.8935 85.7449 90.5105 85.8206C91.7229 85.8712 92.885 85.6692 94.0726 85.4164C94.8306 85.265 95.5885 85.0627 96.2958 84.7596C97.8874 84.0271 99.3275 83.0669 100.363 81.6271C102.738 78.368 102.687 74.9321 102.687 71.0414C102.738 66.5193 102.738 61.9718 102.763 57.4497Z" fill="#231F20"/>
<path d="M196.445 57.4479C196.445 56.9931 196.293 56.8668 195.838 56.8668C194.297 56.892 192.756 56.8668 191.241 56.8668C190.331 56.8668 190.331 56.8668 190.331 57.751C190.331 63.031 190.356 68.3364 190.331 73.6164C190.331 74.8292 190.154 76.0165 189.598 77.128C188.689 78.9219 187.198 79.9072 185.202 80.1091C184.293 80.1852 183.383 80.1597 182.474 79.8817C181.236 79.4778 180.2 78.745 179.518 77.6586C178.735 76.4461 178.457 75.0311 178.457 73.5659C178.482 68.2353 178.457 62.9048 178.482 57.5742C178.482 57.0182 178.331 56.8414 177.775 56.8668C176.183 56.892 174.566 56.892 172.975 56.8668C172.444 56.8668 172.217 57.0688 172.217 57.5993C172.293 61.0858 172.192 64.572 172.192 68.0585C172.192 72.0249 171.964 75.5114 173.379 79.2755C173.985 80.8925 175.021 82.2061 176.335 83.2671C178.533 85.0358 181.16 85.6168 183.939 85.8188C184.874 85.8945 185.809 85.6671 186.744 85.6168C187.602 85.5663 188.461 85.3389 189.244 85.0358C190.786 84.4547 192.2 83.6462 193.363 82.4083C196.394 79.1493 196.394 75.4608 196.394 71.2924C196.419 66.6943 196.419 62.0711 196.445 57.4479Z" fill="#231F20"/>
<path d="M53.6526 57.6475C53.678 57.0413 53.5012 56.8644 52.8695 56.8644C46.9073 56.8896 40.92 56.8896 34.9578 56.8644C34.3007 56.8644 34.1493 57.0918 34.1744 57.698C34.1999 62.195 34.1744 66.6919 34.1744 71.1637C34.1744 75.6858 34.1744 80.2333 34.1744 84.7554C34.1744 85.2353 34.3007 85.387 34.8061 85.387C36.3976 85.3619 38.0146 85.3365 39.6061 85.387C40.1621 85.4122 40.3135 85.2353 40.3135 84.7048C40.2883 81.6731 40.3135 78.6163 40.3135 75.5847C40.3135 74.7762 40.3135 74.7762 41.1471 74.7762C44.6841 74.7762 48.2209 74.7762 51.7579 74.7762C52.4907 74.7762 52.617 74.6499 52.617 73.9426C52.617 72.6796 52.617 71.4163 52.617 70.153C52.617 69.2688 52.617 69.2688 51.7831 69.2688C48.1706 69.2688 44.5579 69.2688 40.92 69.2688C40.4652 69.2688 40.3135 69.1676 40.3135 68.6877C40.3389 66.9193 40.3389 65.151 40.3389 63.4077C40.3389 62.4475 40.3389 62.4475 41.2737 62.4475C45.1641 62.4475 49.0548 62.4224 52.9452 62.473C53.5263 62.473 53.7537 62.3718 53.7286 61.7402C53.6023 60.376 53.6023 59.0119 53.6526 57.6475Z" fill="#231F20"/>
<path d="M149.022 57.7023C149.022 57.1215 148.794 56.8941 148.188 56.8941C141.089 56.8941 134.015 56.8941 126.916 56.8941C126.361 56.8941 126.108 57.1215 126.133 57.6772C126.158 59.0667 126.158 60.4563 126.133 61.8204C126.108 62.3761 126.285 62.5529 126.841 62.5278C129.139 62.5026 131.413 62.5278 133.712 62.5026C134.268 62.5026 134.419 62.6289 134.419 63.1845C134.394 66.7722 134.394 70.3595 134.394 73.9468C134.394 77.5596 134.394 81.1723 134.394 84.7851C134.394 85.265 134.495 85.4418 135.026 85.4167C136.617 85.3913 138.234 85.3913 139.826 85.3913C140.685 85.3913 140.685 85.3913 140.685 84.5325C140.685 77.4587 140.685 70.3846 140.685 63.3108C140.685 62.7046 140.786 62.4772 141.468 62.4772C143.792 62.5278 146.091 62.4772 148.416 62.5026C148.87 62.5026 149.047 62.3509 149.047 61.8961C148.997 60.5066 148.997 59.0919 149.022 57.7023Z" fill="#231F20"/>
</g>
<defs>
<clipPath id="clip0_6_132">
<rect width="324" height="142.318" fill="white"/>
</clipPath>
</defs>
</svg>
