<svg width="324" height="46" viewBox="0 0 324 46" fill="none" xmlns="http://www.w3.org/2000/svg">
<path fill-rule="evenodd" clip-rule="evenodd" d="M44.7049 22.5728C44.7049 35.0325 34.699 45.1337 22.3465 45.1337C16.3924 45.1021 10.6943 42.7082 6.50417 38.4779C2.31406 34.2476 -0.0253192 28.5269 2.06261e-05 22.5728C2.06261e-05 10.1012 10.0059 0 22.3465 0C25.2967 0.0140449 28.2153 0.609052 30.9356 1.75105C33.6558 2.89304 36.1245 4.55966 38.2007 6.65575C40.2769 8.75183 41.9199 11.2363 43.0359 13.9674C44.1518 16.6984 44.719 19.6226 44.7049 22.5728" fill="#FFDC14"/>
<path fill-rule="evenodd" clip-rule="evenodd" d="M286.311 31.7568C281.534 31.7568 277.818 27.7306 277.818 22.7634C277.818 17.7843 281.534 13.7581 286.311 13.7581C291.1 13.7581 294.852 17.7843 294.852 22.7634C294.852 27.7306 291.1 31.7568 286.311 31.7568ZM286.311 10.4347C279.557 10.4347 274.161 15.795 274.161 22.7634C274.161 29.7198 279.462 35.0801 286.228 35.0801C287.881 35.1037 289.517 34.7488 291.012 34.0427C292.507 33.3366 293.82 32.298 294.852 31.0063V32.9956C294.852 38.4035 291.469 41.8103 286.251 41.8103C282.118 41.8103 279.843 40.4404 277.949 37.7365L274.971 40.1307C277.389 43.2873 280.76 45.1337 286.287 45.1337C293.41 45.1337 298.425 40.357 298.425 32.8645V22.7634C298.425 15.7354 293.065 10.4347 286.311 10.4347V10.4347ZM320.14 10.9112L312.684 29.1838L304.846 10.8993H300.986L310.778 33.3887L310.266 34.5203C308.526 38.4154 307.359 39.4637 304.893 39.4637C304.243 39.473 303.599 39.3316 303.012 39.0505C302.425 38.7695 301.911 38.3564 301.51 37.8437L299.962 41.3815C301.426 42.3756 303.159 42.8992 304.929 42.8823C309.003 42.8823 311.123 40.8693 313.386 35.5685L324 10.9112H320.14V10.9112ZM260.236 22.4179C260.236 15.2709 264.548 10.9112 271.397 10.9112H273.137V14.5085H271.35C266.8 14.5085 263.845 17.5818 263.893 22.4179V34.5918H260.236V22.4179V22.4179ZM208.11 21.1791C208.11 14.8778 212.434 10.4228 218.569 10.4228C224.715 10.4228 229.218 14.7825 229.218 21.1791V34.5918H225.561V21.2268C225.561 16.9147 222.702 13.9844 218.569 13.9844C214.4 13.9844 211.72 16.9147 211.779 21.0838V34.5918H208.11V21.1791ZM70.4937 31.7568C65.7052 31.7568 62.0007 27.7306 62.0007 22.7515C62.0007 17.7723 65.7052 13.7462 70.4937 13.7462C75.2823 13.7462 79.0345 17.7723 79.0345 22.7515C79.0345 27.7306 75.2823 31.7568 70.4937 31.7568V31.7568ZM97.7002 35.0682C99.3139 35.0747 100.913 34.7597 102.403 34.1415C103.894 33.5233 105.246 32.6144 106.382 31.4678C107.517 30.3212 108.413 28.9599 109.017 27.4634C109.621 25.9668 109.92 24.365 109.898 22.7515C109.92 21.1379 109.621 19.5361 109.017 18.0396C108.413 16.543 107.517 15.1817 106.382 14.0351C105.246 12.8885 103.894 11.9796 102.403 11.3614C100.913 10.7433 99.3139 10.4282 97.7002 10.4347C90.9343 10.4347 85.5502 15.795 85.5502 22.7515C85.5502 29.7198 90.9343 35.0682 97.7002 35.0682ZM97.7002 31.7568C92.9117 31.7568 89.2071 27.7306 89.2071 22.7515C89.2071 17.7723 92.8998 13.7462 97.7002 13.7462C102.477 13.7462 106.241 17.7723 106.241 22.7515C106.241 27.7306 102.477 31.7568 97.7002 31.7568ZM124.68 35.0682C126.294 35.0747 127.893 34.7597 129.383 34.1415C130.874 33.5233 132.227 32.6144 133.362 31.4678C134.498 30.3212 135.393 28.9599 135.997 27.4634C136.601 25.9668 136.9 24.365 136.878 22.7515C136.9 21.1379 136.601 19.5361 135.997 18.0396C135.393 16.543 134.498 15.1817 133.362 14.0351C132.227 12.8885 130.874 11.9796 129.383 11.3614C127.893 10.7433 126.294 10.4282 124.68 10.4347C117.926 10.4347 112.53 15.795 112.53 22.7515C112.53 29.7198 117.926 35.0682 124.68 35.0682ZM124.68 31.7568C119.892 31.7568 116.187 27.7306 116.187 22.7515C116.187 17.7723 119.892 13.7462 124.68 13.7462C129.469 13.7462 133.221 17.7723 133.221 22.7515C133.221 27.7306 129.469 31.7568 124.68 31.7568ZM79.0345 30.9944V32.9956C79.0345 38.4035 75.6515 41.8103 70.4342 41.8103C66.3008 41.8103 64.0257 40.4404 62.1317 37.7365L59.1538 40.1307C61.5599 43.2754 64.9429 45.1337 70.4699 45.1337C77.5812 45.1337 82.608 40.357 82.608 32.8645V22.7515C82.608 15.7354 77.2477 10.4347 70.4937 10.4347C63.7398 10.4347 58.3438 15.795 58.3438 22.7515C58.3438 29.7198 63.6445 35.0682 70.3984 35.0682C72.0534 35.0936 73.6922 34.7396 75.1892 34.0335C76.6862 33.3273 78.0016 32.2877 79.0345 30.9944V30.9944ZM160.094 22.7396C160.094 17.7604 156.342 13.7343 151.565 13.7343C146.777 13.7343 143.072 17.7604 143.072 22.7396C143.072 27.7068 146.777 31.7329 151.565 31.7329C156.342 31.7329 160.106 27.7068 160.106 22.7396H160.094ZM139.415 22.7396C139.415 15.7712 144.656 10.4228 151.422 10.4228C154.996 10.4228 157.938 11.9356 159.963 14.4013V0H163.62V22.7396C163.62 29.696 158.319 35.0563 151.565 35.0563C144.811 35.0563 139.415 29.696 139.415 22.7396V22.7396ZM184.191 20.5716H200.951C200.284 16.3072 197.187 13.6985 192.637 13.6985C190.654 13.6983 188.731 14.3817 187.192 15.6337C185.654 16.8856 184.594 18.6295 184.191 20.5716V20.5716ZM180.499 22.9421C180.499 15.8307 185.597 10.4347 192.649 10.4347C199.403 10.4347 204.656 15.116 204.656 22.3703V23.9307H184.013C184.192 26.1221 185.207 28.1607 186.848 29.6242C188.489 31.0877 190.63 31.864 192.828 31.7925C196.639 31.7925 199.308 29.8032 200.761 26.9087L203.905 28.481C201.749 32.6025 198.081 35.0682 192.828 35.0682C185.371 35.0682 180.487 29.8985 180.487 22.9421H180.499ZM236.389 20.5716H253.137C252.482 16.3072 249.385 13.6985 244.834 13.6985C242.851 13.6983 240.928 14.3817 239.39 15.6337C237.851 16.8856 236.792 18.6295 236.389 20.5716V20.5716ZM232.684 22.9421C232.684 15.8307 237.806 10.4347 244.834 10.4347C251.588 10.4347 256.853 15.116 256.853 22.3703V23.9307H236.198C236.377 26.1221 237.393 28.1607 239.034 29.6242C240.674 31.0877 242.815 31.864 245.013 31.7925C248.825 31.7925 251.505 29.8032 252.958 26.9087L256.103 28.481C253.935 32.6025 250.278 35.0682 245.025 35.0682C237.568 35.0682 232.684 29.8985 232.684 22.9421" fill="black"/>
</svg>
