<svg width="200" height="200" viewBox="0 0 200 200" fill="none" xmlns="http://www.w3.org/2000/svg">
<path d="M176.8 41.3C175.3 37.35 171.7 31.8 166.6 27.85C163.6 25.6 160.2 23.4 155.4 22C150.2 20.5 143.8 20 136 20H64C56.15 20 49.8 20.5 44.65 22.05C39.85 23.5 36.3 25.65 33.4 27.9C28.3 31.8 24.7 37.4 23.15 41.35C20.05 49.3 20 58.3 20 64V136C20 141.7 20.05 150.7 23.15 158.7C24.7 162.65 28.3 168.2 33.4 172.15C36.35 174.4 39.85 176.6 44.65 178C49.8 179.5 56.15 180 64 180H136C143.85 180 150.2 179.5 155.35 177.95C160.15 176.5 163.7 174.35 166.6 172.1C171.7 168.2 175.3 162.6 176.85 158.65C180 150.7 180 141.65 180 135.95V63.95C180 58.25 179.95 49.25 176.85 41.25L176.8 41.3ZM51.7 130H45.75V94.45H51.7V130ZM48.75 88.45C46.75 88.45 45.05 86.8 45.05 84.75C45.05 82.7 46.7 81.05 48.75 81.05C50.8 81.05 52.5 82.7 52.5 84.75C52.45 86.8 50.8 88.45 48.75 88.45ZM84.5 130.9C68.8 130.9 58.9 119.7 58.9 101.85C58.9 84 68.8 72.75 84.5 72.75C100.2 72.75 110.1 84 110.1 101.85C110.1 119.7 100.2 130.9 84.5 130.9V130.9ZM136.3 130.9C124.5 130.9 116.2 124.4 115.65 114.7H121C121.6 121.45 127.95 126.05 136.8 126.05C145.25 126.05 151.3 121.45 151.3 115.1C151.3 109.85 147.65 106.7 139.3 104.6L132.3 102.8C121.85 100.15 117.2 95.75 117.2 88.3C117.2 79.2 125.4 72.7 136.5 72.7C147.5 72.7 155.5 79.2 155.85 88.15H150.5C150 81.8 144.35 77.55 136.35 77.55C128.55 77.55 122.75 81.9 122.75 88.1C122.75 92.95 126.25 95.8 134.55 97.9L140.65 99.45C152 102.3 156.75 106.65 156.75 114.5C156.75 124.4 148.8 130.9 136.3 130.9V130.9ZM104.65 101.85C104.65 116.6 96.85 125.95 84.5 125.95C72.15 125.95 64.4 116.6 64.4 101.85C64.4 87.05 72.15 77.7 84.5 77.7C96.85 77.7 104.65 87.05 104.65 101.85Z" fill="#4185B9"/>
</svg>
