<svg width="548" height="200" viewBox="0 0 548 200" fill="none" xmlns="http://www.w3.org/2000/svg">
<path fill-rule="evenodd" clip-rule="evenodd" d="M117.29 197.323C118.807 198.877 120.624 199.654 122.75 199.654C124.794 199.654 126.574 198.877 128.092 197.323C129.609 195.77 130.362 193.966 130.362 191.923C130.362 189.796 129.621 188.003 128.151 186.522C126.682 185.04 124.877 184.311 122.75 184.311C120.624 184.311 118.807 185.052 117.29 186.522C115.772 188.003 115.02 189.796 115.02 191.923C115.02 193.978 115.773 195.77 117.29 197.323ZM143.972 192.436C148.668 197.252 154.319 199.654 160.915 199.654C167.582 199.654 173.187 197.264 177.739 192.496L177.966 192.95C178.193 193.333 178.384 193.667 178.54 193.978C178.695 194.288 178.934 194.659 179.281 195.113C179.627 195.567 179.962 195.985 180.308 196.368C180.643 196.75 181.085 197.144 181.61 197.562C182.136 197.981 182.71 198.339 183.319 198.638C183.929 198.937 184.622 199.187 185.422 199.379C186.223 199.57 187.035 199.665 187.86 199.665C189.831 199.665 191.851 199.176 193.942 198.184C196.021 197.204 197.443 196.403 198.207 195.794L200.024 194.312V190.56H191.158V107.002H186.043L167.857 111.327V116.215H177.524V140.435C175.17 139.754 172.41 139.407 169.22 139.407C160.282 139.407 152.658 142.215 146.373 147.819C140.076 153.423 136.934 161.346 136.934 171.574C136.922 180.679 139.264 187.633 143.972 192.436ZM156.243 152.121C159.804 147.807 164.464 145.657 170.223 145.657C172.72 145.657 175.146 146.039 177.5 146.792V186.82C173.856 189.617 169.925 191.015 165.683 191.015C161.668 191.015 158.191 189.318 155.275 185.912C152.36 182.507 150.902 177.56 150.902 171.06C150.902 162.744 152.682 156.435 156.243 152.121ZM211.172 190.68C216.441 196.666 223.658 199.654 232.823 199.654C239.192 199.654 245.895 198.1 252.945 194.993L251.009 189.652C246.313 191.325 241.952 192.15 237.937 192.15C231.64 192.15 226.681 189.987 223.049 185.649C219.417 181.312 217.326 176.054 216.8 169.877H255.227C255.227 165.707 254.773 161.847 253.865 158.274C252.957 154.714 251.535 151.488 249.6 148.608C247.664 145.728 245.059 143.47 241.761 141.845C238.463 140.22 234.615 139.395 230.218 139.395C221.807 139.395 215.211 142.215 210.443 147.867C205.664 153.507 203.286 160.509 203.286 168.837C203.274 177.417 205.902 184.694 211.172 190.68ZM220.612 150.962C223.001 147.425 226.084 145.657 229.872 145.657C233.361 145.657 236.05 147.318 237.938 150.627C239.837 153.937 240.889 157.856 241.116 162.373L216.788 164.189C216.955 158.908 218.222 154.511 220.612 150.962ZM262.923 148.166L284.526 198.757H291.349L311.243 148.512L320.335 146.015V141.128H296.809V146.015L304.767 148.178L291.576 181.145L277.476 147.831L285.553 146.015V141.128H255.311V146.015L262.923 148.166Z" fill="#1C1B19"/>
<path fill-rule="evenodd" clip-rule="evenodd" d="M42.741 90.8113C46.457 89.2937 49.6954 87.1907 52.4553 84.5023C55.2275 81.8136 57.3782 78.6113 58.9316 74.8953C60.4851 71.1792 61.2616 67.1644 61.2616 62.8388C61.2616 58.4419 60.4851 54.4032 58.9316 50.7348C57.3782 47.0546 55.2156 43.9001 52.4553 41.2474C49.6834 38.5948 46.4451 36.5276 42.741 35.0458C39.0249 33.5642 35.0101 32.8235 30.6848 32.8235C26.3592 32.8235 22.3324 33.5642 18.5806 35.0458C14.8284 36.5276 11.5904 38.5948 8.86591 41.2474C6.14173 43.9001 3.97908 47.0665 2.3899 50.7348C0.800713 54.4151 0 58.4419 0 62.8388C0 67.2359 0.800713 71.2869 2.3899 75.0029C3.97908 78.719 6.14173 81.8973 8.86591 84.55C11.5904 87.2026 14.8284 89.2937 18.5806 90.7994C22.3324 92.3167 26.3711 93.0693 30.6848 93.0693C34.9982 93.0693 39.0249 92.3286 42.741 90.8113ZM21.4243 46.2419C23.5035 42.2271 26.598 40.2198 30.6848 40.2198C34.7712 40.2198 37.8658 42.2271 39.9449 46.2419C42.0241 50.2568 43.0756 55.789 43.0756 62.8388C43.0756 69.9604 42.036 75.5525 39.9449 79.6032C37.8538 83.6538 34.7712 85.685 30.6848 85.685C26.598 85.685 23.5035 83.6538 21.4243 79.6032C19.3452 75.5525 18.3056 69.9604 18.3056 62.8388C18.3056 55.8009 19.3452 50.2687 21.4243 46.2419ZM70.5578 42.4901V75.5645C70.5578 87.2384 76.843 93.0693 89.4253 93.0693C94.5036 93.0693 99.3188 91.8628 103.859 89.4371L102.043 83.0684C98.8646 84.4304 96.3197 85.1115 94.4317 85.1115C91.8506 85.1115 90.1541 84.3588 89.3176 82.8412C88.4811 81.3239 88.063 78.7071 88.063 75.0029V42.4901H102.163V34.5323L88.063 35.1057V24.1964H83.857L64.5357 37.9495V42.502H70.5578V42.4901ZM113.024 89.1025C116.549 91.7551 120.922 93.0813 126.156 93.0813C132.142 93.0813 137.675 91.1459 142.753 87.2864C145.561 91.1578 149.838 93.0813 155.598 93.0813C158.024 93.0813 160.377 92.5916 162.648 91.5998C164.918 90.6198 166.4 89.8194 167.081 89.2099C167.762 88.6006 168.287 88.1106 168.67 87.7283V82.8412H159.804V52.3717C159.804 39.3356 151.655 32.8235 135.368 32.8235C131.426 32.8235 127.375 33.3373 123.205 34.3527C119.034 35.3804 116.226 36.193 114.793 36.8023L111.387 38.2841C111.387 44.4974 113.968 49.0857 119.118 52.0371L133.552 39.5387C135.225 39.5387 136.623 39.7895 137.758 40.2794C138.893 40.7694 139.754 41.319 140.315 41.9286C140.877 42.5378 141.319 43.5535 141.618 44.9993C141.916 46.445 142.084 47.6758 142.131 48.6915C142.167 49.7191 142.191 51.3679 142.191 53.6382V57.0439C130.063 57.0439 121.293 58.7643 115.88 62.2176C110.455 65.6709 107.754 70.6893 107.754 77.2852C107.731 82.5066 109.499 86.4499 113.024 89.1025ZM130.924 67.4513C134.185 65.2167 137.938 64.0937 142.179 64.0937V79.6628C139.909 82.1601 137.065 83.4147 133.648 83.4147C131.521 83.4147 129.729 82.7696 128.247 81.4789C126.765 80.1886 126.025 78.444 126.025 76.2456C126.036 72.625 127.661 69.6855 130.924 67.4513ZM207.444 91.3728V85.3507L200.06 83.0804V0.429932H191.074L172.888 4.75554V10.7777H182.554V83.0804L172.888 85.3504V91.3728H207.444ZM218.7 91.3728H243.709V85.3507L234.616 83.1877L218.592 57.1512L231.664 42.717L242.012 40.5544V34.5319H215.294V40.5544L222.117 42.2629L202.103 63.9741L218.7 91.3728ZM257.139 42.8366V75.2299C257.139 87.131 262.935 93.0813 274.537 93.0813C282.339 93.0813 288.935 90.6201 294.312 85.6972C296.511 90.6201 300.334 93.0813 305.795 93.0813C306.93 93.0813 308.161 92.9739 309.487 92.747C310.813 92.5197 312.104 92.1613 313.346 91.6716C314.601 91.1817 315.737 90.6917 316.751 90.1898C317.78 89.6998 319.117 88.8875 320.79 87.7522V82.8651H311.925V34.5561H286.916V40.5783L294.3 42.8486V77.751C292.854 79.6509 290.966 81.1566 288.613 82.3035C286.258 83.4388 283.988 84.0123 281.79 84.0123C278.91 84.0123 276.998 83.2715 276.054 81.7897C275.11 80.3082 274.632 77.6436 274.632 73.7722V34.5561H247.461V40.5783L257.139 42.8366Z" fill="#1C1B19"/>
<path fill-rule="evenodd" clip-rule="evenodd" d="M469.279 102.055L547.865 142.621V57.032L469.279 16.4775V102.055Z" fill="#4067A3"/>
<path fill-rule="evenodd" clip-rule="evenodd" d="M339.036 143.458L417.623 184.012V98.4346L339.036 57.8682V143.458Z" fill="#4067A3"/>
<mask id="mask0_6_41" style="mask-type:alpha" maskUnits="userSpaceOnUse" x="339" y="57" width="79" height="128">
<path d="M417.614 184.012L339.024 143.458V57.8682L339.036 57.8744V143.458L417.614 184.006V184.012Z" fill="white"/>
</mask>
<g mask="url(#mask0_6_41)">
<path fill-rule="evenodd" clip-rule="evenodd" d="M417.614 184.012L339.024 143.458V57.8682L339.036 57.8744V143.458L417.614 184.006V184.012Z" fill="url(#paint0_linear_6_41)"/>
</g>
<mask id="mask1_6_41" style="mask-type:alpha" maskUnits="userSpaceOnUse" x="339" y="57" width="79" height="128">
<path d="M417.614 184.006L339.036 143.458V57.8745L417.614 98.4346V184.006Z" fill="white"/>
</mask>
<g mask="url(#mask1_6_41)">
<path fill-rule="evenodd" clip-rule="evenodd" d="M417.614 184.006L339.036 143.458V57.8745L417.614 98.4346V184.006Z" fill="url(#paint1_linear_6_41)"/>
</g>
<mask id="mask2_6_41" style="mask-type:alpha" maskUnits="userSpaceOnUse" x="469" y="16" width="79" height="127">
<path d="M547.865 142.621L469.279 102.055V16.4775L547.865 57.032V142.621Z" fill="white"/>
</mask>
<g mask="url(#mask2_6_41)">
<path fill-rule="evenodd" clip-rule="evenodd" d="M547.865 142.621L469.279 102.055V16.4775L547.865 57.032V142.621Z" fill="url(#paint2_linear_6_41)"/>
</g>
<path fill-rule="evenodd" clip-rule="evenodd" d="M450.27 0L339.036 57.4021V142.992L450.27 85.5777V0Z" fill="#4185B9"/>
<path fill-rule="evenodd" clip-rule="evenodd" d="M436.635 114.422V200L547.865 142.598V57.0081L436.635 114.422Z" fill="#4185B9"/>
<defs>
<linearGradient id="paint0_linear_6_41" x1="371.74" y1="129.095" x2="436.632" y2="129.095" gradientUnits="userSpaceOnUse">
<stop stop-color="#787572"/>
<stop offset="1" stop-color="#FFFFFE"/>
</linearGradient>
<linearGradient id="paint1_linear_6_41" x1="371.74" y1="129.095" x2="436.632" y2="129.095" gradientUnits="userSpaceOnUse">
<stop stop-color="#344258"/>
<stop offset="1" stop-color="#4168A3"/>
</linearGradient>
<linearGradient id="paint2_linear_6_41" x1="508.727" y1="71.3943" x2="450.267" y2="71.3943" gradientUnits="userSpaceOnUse">
<stop stop-color="#344258"/>
<stop offset="1" stop-color="#4168A3"/>
</linearGradient>
</defs>
</svg>
