<svg width="264" height="97" viewBox="0 0 264 97" fill="none" xmlns="http://www.w3.org/2000/svg">
<path fill-rule="evenodd" clip-rule="evenodd" d="M56.4007 94.8861C57.1304 95.6331 58.0038 96.0067 59.0265 96.0067C60.0091 96.0067 60.8652 95.6331 61.595 94.8861C62.3246 94.1393 62.6867 93.2716 62.6867 92.2891C62.6867 91.2664 62.3303 90.4044 61.6236 89.692C60.917 88.9796 60.0492 88.6289 59.0265 88.6289C58.0038 88.6289 57.1304 88.9853 56.4007 89.692C55.6709 90.4044 55.309 91.2664 55.309 92.2891C55.309 93.2773 55.6711 94.1393 56.4007 94.8861ZM69.2311 92.5362C71.4892 94.8517 74.207 96.0067 77.3786 96.0067C80.5847 96.0067 83.2795 94.8574 85.4687 92.5649L85.5778 92.7833C85.6871 92.9671 85.779 93.128 85.8537 93.2773C85.9284 93.4267 86.0433 93.6048 86.2099 93.8232C86.3766 94.0415 86.5375 94.2427 86.7041 94.4265C86.865 94.6104 87.0775 94.7999 87.3303 95.0011C87.5831 95.2022 87.8589 95.3745 88.152 95.5182C88.445 95.6619 88.7783 95.7825 89.1633 95.8744C89.5482 95.9664 89.9389 96.0124 90.3355 96.0124C91.2835 96.0124 92.2544 95.7768 93.26 95.2998C94.2598 94.8288 94.9435 94.4437 95.3112 94.1508L96.1846 93.4382V91.6341H91.9212V51.4537H89.462L80.717 53.5336V55.8837H85.3653V67.5305C84.2333 67.2029 82.9061 67.0363 81.372 67.0363C77.0741 67.0363 73.4082 68.3866 70.386 71.0814C67.358 73.7762 65.8468 77.5856 65.8468 82.504C65.8411 86.8823 66.9672 90.2263 69.2311 92.5362ZM75.132 73.1498C76.8443 71.0756 79.0852 70.0414 81.8545 70.0414C83.0554 70.0414 84.2218 70.2253 85.3538 70.5872V89.8357C83.6013 91.1802 81.711 91.8525 79.6711 91.8525C77.7407 91.8525 76.0686 91.0365 74.6666 89.3989C73.2647 87.7614 72.5636 85.3826 72.5636 82.2569C72.5636 78.2579 73.4197 75.2241 75.132 73.1498ZM101.545 91.6916C104.079 94.5702 107.55 96.0067 111.957 96.0067C115.019 96.0067 118.243 95.2597 121.633 93.7657L120.702 91.1974C118.444 92.0017 116.347 92.3983 114.416 92.3983C111.388 92.3983 109.003 91.3583 107.257 89.2725C105.51 87.1868 104.505 84.6586 104.252 81.688H122.73C122.73 79.6829 122.512 77.827 122.075 76.1089C121.639 74.3966 120.955 72.8453 120.024 71.4605C119.093 70.0758 117.841 68.9898 116.255 68.2085C114.669 67.4271 112.819 67.0306 110.704 67.0306C106.659 67.0306 103.487 68.3866 101.195 71.1043C98.8967 73.8163 97.7531 77.1834 97.7531 81.1881C97.7474 85.3137 99.0115 88.8129 101.545 91.6916ZM106.085 72.5925C107.234 70.8918 108.716 70.0414 110.538 70.0414C112.215 70.0414 113.508 70.84 114.416 72.4316C115.33 74.0232 115.835 75.9078 115.944 78.0798L104.246 78.9531C104.326 76.4134 104.935 74.299 106.085 72.5925ZM126.431 71.248L136.819 95.5757H140.1L149.666 71.4146L154.038 70.2138V67.8637H142.726V70.2138L146.552 71.2537L140.209 87.1063L133.429 71.0871L137.313 70.2138V67.8637H122.77V70.2138L126.431 71.248Z" fill="white"/>
<path fill-rule="evenodd" clip-rule="evenodd" d="M20.5527 43.6681C22.3396 42.9384 23.8968 41.9271 25.224 40.6343C26.5571 39.3414 27.5913 37.8016 28.3382 36.0147C29.0852 34.2277 29.4586 32.2971 29.4586 30.2171C29.4586 28.1028 29.0852 26.1607 28.3382 24.3967C27.5913 22.627 26.5513 21.1101 25.224 19.8346C23.8911 18.559 22.3339 17.5649 20.5527 16.8524C18.7658 16.14 16.8352 15.7838 14.7553 15.7838C12.6752 15.7838 10.7389 16.14 8.93476 16.8524C7.13048 17.5649 5.57344 18.559 4.26332 19.8346C2.95335 21.1101 1.91341 22.6327 1.14922 24.3967C0.385036 26.1664 0 28.1028 0 30.2171C0 32.3315 0.385036 34.2795 1.14922 36.0664C1.91341 37.8534 2.95335 39.3817 4.26332 40.6573C5.57344 41.9328 7.13048 42.9384 8.93476 43.6624C10.7389 44.392 12.681 44.754 14.7553 44.754C16.8294 44.754 18.7658 44.3978 20.5527 43.6681ZM10.3022 22.2362C11.302 20.3056 12.7901 19.3404 14.7553 19.3404C16.7203 19.3404 18.2084 20.3056 19.2082 22.2362C20.208 24.1669 20.7136 26.8271 20.7136 30.2171C20.7136 33.6417 20.2137 36.3307 19.2082 38.2785C18.2026 40.2264 16.7203 41.2031 14.7553 41.2031C12.7901 41.2031 11.302 40.2264 10.3022 38.2785C9.30244 36.3307 8.80254 33.6417 8.80254 30.2171C8.80254 26.8328 9.30244 24.1726 10.3022 22.2362ZM33.9289 20.4321V36.3365C33.9289 41.95 36.9512 44.754 43.0016 44.754C45.4436 44.754 47.7591 44.1738 49.9425 43.0073L49.0691 39.9449C47.5407 40.5998 46.3169 40.9273 45.409 40.9273C44.1679 40.9273 43.3521 40.5654 42.9498 39.8356C42.5476 39.106 42.3465 37.8476 42.3465 36.0664V20.4321H49.1266V16.6054L42.3465 16.8812V11.6353H40.324L31.033 18.2487V20.4378H33.9289V20.4321ZM54.3495 42.8465C56.0445 44.122 58.1475 44.7597 60.6642 44.7597C63.5428 44.7597 66.2031 43.829 68.6451 41.9731C69.9953 43.8348 72.0523 44.7597 74.8218 44.7597C75.9882 44.7597 77.1201 44.5243 78.2118 44.0473C79.3035 43.5761 80.0161 43.1912 80.3434 42.8981C80.671 42.6051 80.9238 42.3695 81.1076 42.1857V39.8356H76.8443V25.1839C76.8443 18.9152 72.9257 15.7838 65.0942 15.7838C63.1981 15.7838 61.2503 16.0308 59.245 16.5191C57.2396 17.0133 55.8894 17.404 55.1999 17.697L53.5624 18.4096C53.5624 21.3973 54.8034 23.6037 57.2799 25.023L64.2208 19.0129C65.0252 19.0129 65.6974 19.1335 66.2434 19.3691C66.7892 19.6047 67.2029 19.869 67.4729 20.1621C67.7429 20.4551 67.9556 20.9435 68.0993 21.6387C68.2428 22.3339 68.3233 22.9257 68.3462 23.4141C68.3636 23.9083 68.375 24.7012 68.375 25.7929V27.4305C62.543 27.4305 58.3256 28.2578 55.7227 29.9184C53.1141 31.579 51.8155 33.9921 51.8155 37.1639C51.8042 39.6747 52.6545 41.5709 54.3495 42.8465ZM62.9568 32.4351C64.5253 31.3606 66.3296 30.8205 68.3693 30.8205V38.3072C67.2776 39.5081 65.9101 40.1114 64.2667 40.1114C63.244 40.1114 62.3821 39.8012 61.6696 39.1805C60.9572 38.56 60.601 37.7211 60.601 36.664C60.6067 34.923 61.3881 33.5094 62.9568 32.4351ZM99.7528 43.9382V41.0423L96.2019 39.9506V0.206787H91.8811L83.1359 2.28683V5.18267H87.7842V39.9506L83.1359 41.0422V43.9382H99.7528ZM105.165 43.9382H117.191V41.0423L112.819 40.0022L105.114 27.4821L111.4 20.5412L116.375 19.5013V16.6053H103.528V19.5013L106.809 20.3228L97.1845 30.763L105.165 43.9382ZM123.65 20.5987V36.1756C123.65 41.8984 126.436 44.7597 132.016 44.7597C135.767 44.7597 138.939 43.5762 141.525 41.209C142.582 43.5762 144.421 44.7597 147.046 44.7597C147.592 44.7597 148.184 44.7081 148.822 44.599C149.46 44.4897 150.08 44.3173 150.678 44.0819C151.281 43.8462 151.827 43.6106 152.315 43.3693C152.81 43.1337 153.453 42.7431 154.257 42.1971V39.8471H149.994V16.6169H137.968V19.5128L141.519 20.6045V37.3879C140.824 38.3015 139.916 39.0255 138.784 39.577C137.652 40.123 136.56 40.3987 135.503 40.3987C134.118 40.3987 133.199 40.0425 132.745 39.33C132.291 38.6175 132.061 37.3363 132.061 35.4746V16.6169H118.996V19.5128L123.65 20.5987Z" fill="white"/>
<mask id="mask0_18_435" style="mask-type:alpha" maskUnits="userSpaceOnUse" x="163" y="27" width="38" height="62">
<path d="M200.816 88.4824L163.031 68.9841V27.83L200.816 47.334V88.4824Z" fill="white"/>
</mask>
<g mask="url(#mask0_18_435)">
<path fill-rule="evenodd" clip-rule="evenodd" d="M200.816 88.4824L163.031 68.9841V27.83L200.816 47.334V88.4824Z" fill="url(#paint0_linear_18_435)"/>
</g>
<mask id="mask1_18_435" style="mask-type:alpha" maskUnits="userSpaceOnUse" x="225" y="7" width="39" height="62">
<path d="M263.45 68.5818L225.66 49.0748V7.92346L263.45 27.4248V68.5818Z" fill="white"/>
</mask>
<g mask="url(#mask1_18_435)">
<path fill-rule="evenodd" clip-rule="evenodd" d="M263.45 68.5818L225.66 49.0748V7.92346L263.45 27.4248V68.5818Z" fill="url(#paint1_linear_18_435)"/>
</g>
<path fill-rule="evenodd" clip-rule="evenodd" d="M216.52 0L163.031 27.6027V68.7599L216.52 41.1514V0Z" fill="#4185B9"/>
<path fill-rule="evenodd" clip-rule="evenodd" d="M209.963 55.0218V96.1733L263.45 68.5704V27.4132L209.963 55.0218Z" fill="#4185B9"/>
<defs>
<linearGradient id="paint0_linear_18_435" x1="178.757" y1="62.0776" x2="209.962" y2="62.0776" gradientUnits="userSpaceOnUse">
<stop stop-color="#4A6084"/>
<stop offset="1" stop-color="#4168A3"/>
</linearGradient>
<linearGradient id="paint1_linear_18_435" x1="244.63" y1="34.3311" x2="216.518" y2="34.3311" gradientUnits="userSpaceOnUse">
<stop stop-color="#4A6084"/>
<stop offset="1" stop-color="#4168A3"/>
</linearGradient>
</defs>
</svg>
