<svg width="324" height="59" viewBox="0 0 324 59" fill="none" xmlns="http://www.w3.org/2000/svg">
<path d="M52.1218 41.4002L33.1152 32.2026C33.1152 32.2026 15.3391 23.6028 14.0993 32.862C14.0993 32.862 11.2534 29.0465 11.2534 28.6859C11.2534 28.3252 15.6256 19.2178 16.6072 19.2178C17.5887 19.2178 28.7429 18.8571 29.6351 19.0373C30.5275 19.2178 40.1646 21.9229 40.1646 21.9229L44.894 27.1529L52.1218 41.4002" fill="url(#paint0_linear_6_143)"/>
<path d="M123.062 38.0625C123.062 38.0625 115.116 57.1073 96.1134 58.0809C76.7499 59.0728 52.1218 41.3991 52.1218 41.3991L53.9957 34.9968L65.7743 41.4892L89.4209 47.8012L108.16 41.0384L123.062 38.0625" fill="url(#paint1_linear_6_143)"/>
<path d="M122.484 39.1515C122.484 39.1515 115.553 54.2823 90.429 51.4404C90.429 51.4404 75.8638 49.7158 57.676 37.7332C57.676 37.7332 57.6732 37.7279 57.6677 37.717C57.6463 37.6708 57.582 37.5243 57.4989 37.3292L62.3368 33.4461L62.5998 33.7743L62.9326 33.9505L73.0032 39.3142C76.5103 41.185 80.3664 42.3429 84.3242 42.579C88.2768 42.8175 92.954 42.2211 96.96 39.298C103.473 34.5553 105.81 25.7045 102.531 18.3047C101.484 15.9374 99.7964 13.4996 97.1238 11.2869C96.7777 10.9995 96.4127 10.7176 96.0317 10.4381C95.5512 10.083 95.0441 9.73862 94.5077 9.40232C94.1452 9.17719 93.7722 8.95485 93.3832 8.73531C94.7088 7.83226 95.9245 7.05129 96.96 6.46017C103.674 2.62334 107.715 3.12766 112.864 5.69291C112.867 5.69291 112.87 5.6957 112.87 5.6957C113.329 5.92337 113.801 6.17007 114.281 6.43048C114.287 6.43327 114.292 6.4386 114.297 6.44139C114.303 6.44393 114.313 6.44672 114.316 6.44672C114.324 6.45205 114.33 6.45205 114.332 6.45484C114.338 6.45484 114.34 6.46017 114.346 6.46017C116.039 7.74546 117.49 9.07694 118.719 10.43C130.843 23.6844 122.484 39.1515 122.484 39.1515" fill="url(#paint2_linear_6_143)"/>
<path d="M107.178 2.78354C104.908 1.92135 102.646 1.29215 100.435 0.739098C100.435 0.739098 100.432 0.739101 100.43 0.736309C99.8878 0.606105 99.3483 0.489608 98.8011 0.394684C97.3626 0.139859 95.9056 0.0149795 94.4323 0.00152764C76.1481 -0.18553 55.8188 16.6128 55.8188 16.6128C55.8188 16.6128 54.1338 17.8656 51.3619 19.807C51.2705 19.8748 51.1821 19.9319 51.0909 19.9969C49.9022 20.8266 48.5228 21.773 47.0042 22.7926C46.3575 23.2263 45.6892 23.6766 44.9889 24.1375C44.7689 24.2839 44.5516 24.4276 44.3261 24.574C43.4729 25.1327 42.59 25.7103 41.6803 26.2959C41.3932 26.4776 41.1062 26.6621 40.8136 26.8464C40.3494 27.1421 39.8825 27.4375 39.4075 27.7357C39.4075 27.7357 39.4023 27.7385 39.3915 27.7467C31.8967 32.4325 23.1678 37.3051 16.2181 39.5368C16.0033 39.6074 15.7941 39.6752 15.5821 39.732C15.4452 39.7754 15.3164 39.8188 15.1795 39.8541C14.5034 40.0521 13.8514 40.2173 13.2207 40.3503C12.59 40.4886 11.9809 40.5917 11.3987 40.6676C11.2109 40.6947 11.0258 40.711 10.8459 40.7272C10.8083 40.73 10.7681 40.7381 10.7332 40.7381C10.6447 40.7434 10.5533 40.7544 10.4622 40.7569C10.3228 40.7625 10.1831 40.7734 10.0462 40.7759C-2.85256 41.2072 1.03822 28.5248 1.63398 26.7677C-0.601375 32.37 -0.389142 37.4569 1.33887 41.7521C1.33887 41.7549 1.34163 41.7549 1.34163 41.7549C2.29932 44.1331 3.72166 46.2671 5.44967 48.111C6.25214 48.9679 7.12142 49.7595 8.04193 50.4889C8.04193 50.4889 8.04444 50.4889 8.04721 50.4917C11.9729 53.5966 16.8163 55.4702 21.3514 55.7578C32.6563 56.4654 49.0836 44.0787 49.0836 44.0787L51.6892 41.9881C51.6947 41.9853 51.6972 41.9853 51.7028 41.9772L57.4989 37.3295L62.3368 33.4464L72.1204 25.1923C72.1204 25.1923 102.05 -1.55761 114.297 6.44168C114.303 6.44422 114.313 6.44701 114.316 6.44701C111.958 4.84979 109.564 3.68938 107.178 2.78354" fill="url(#paint3_linear_6_143)"/>
<path d="M47.0053 22.7919C46.3565 23.2262 45.6874 23.677 44.9892 24.1404C44.7702 24.2823 44.5512 24.4285 44.3281 24.5747C43.4729 25.1341 42.5888 25.7102 41.6799 26.2947C41.3948 26.4782 41.1057 26.662 40.8123 26.8458C40.3497 27.1422 39.8828 27.4387 39.4076 27.7351L38.8168 27.6473C38.8168 27.6473 38.7633 27.6222 38.6641 27.5805C36.6809 26.7288 15.822 18.1622 14.0993 32.8615C13.872 34.7905 14.1571 36.3768 14.8304 37.6793C15.1858 38.3766 15.6568 38.9946 16.2186 39.5372C16.0039 39.6083 15.7932 39.675 15.5824 39.7334C15.446 39.775 15.3139 39.8169 15.1776 39.8545C14.5042 40.0507 13.8514 40.2177 13.2192 40.3512C12.5913 40.4933 11.98 40.5976 11.3975 40.6684C11.2114 40.6936 11.0256 40.7103 10.848 40.7271C10.8065 40.7311 10.7694 40.7355 10.7322 40.7355C10.6413 40.7436 10.5546 40.752 10.4637 40.7563C10.3233 40.7646 10.1829 40.773 10.0465 40.7771C-3.19434 41.2197 1.25503 27.8478 1.67648 26.6496C1.6805 26.6412 1.6805 26.6369 1.6805 26.6369C1.6805 26.6369 7.46858 12.4842 24.0806 14.7848C34.9542 16.2919 42.7872 20.2079 46.8978 22.7252C46.935 22.7503 46.9721 22.7711 47.0053 22.7919" fill="url(#paint4_linear_6_143)"/>
<path d="M114.316 6.44701C114.313 6.44701 114.303 6.44422 114.297 6.44168C102.05 -1.55761 72.1204 25.1923 72.1204 25.1923L62.4737 33.3327C62.3825 33.4086 62.3368 33.4464 62.3368 33.4464L57.4989 37.3295L51.7027 41.9772C51.6972 41.9853 51.6947 41.9853 51.6892 41.9881L49.0836 44.0787C49.0836 44.0787 32.6562 56.4654 21.3513 55.7578C16.8163 55.4702 11.9729 53.5966 8.04718 50.4917C11.3718 52.6826 15.507 53.2359 19.2662 51.9506C24.4236 50.1854 32.058 45.6785 43.556 35.7188C69.2249 13.4836 90.3993 -1.97793 104.38 1.84799C105.362 2.11652 106.022 2.35511 106.703 2.60739C106.859 2.66425 107.015 2.72389 107.178 2.78354C109.564 3.68938 111.957 4.84979 114.316 6.44701" fill="url(#paint5_linear_6_143)"/>
<path d="M118.719 10.4305C113.712 6.40384 105.627 7.74877 97.1238 11.2874C81.8475 17.6407 65.2215 31.0713 62.6721 33.1675L72.1204 25.1926C72.1204 25.1926 83.1169 15.363 94.5076 9.40284C101.21 5.89393 108.053 3.72742 112.864 5.69343C112.867 5.69343 112.87 5.69622 112.87 5.69622C113.363 5.89673 113.833 6.14089 114.281 6.431C114.287 6.43379 114.292 6.43912 114.297 6.44191C114.303 6.44445 114.313 6.44724 114.316 6.44724C114.324 6.45257 114.329 6.45257 114.332 6.45536C114.338 6.45536 114.34 6.46069 114.346 6.46069C116.039 7.74598 117.49 9.07746 118.719 10.4305Z" fill="url(#paint6_linear_6_143)"/>
<path d="M39.3915 27.7472C38.5624 28.3384 6.77255 50.8883 1.34163 41.7555C1.34163 41.7555 1.33887 41.7555 1.33887 41.7527C-0.389142 37.4575 -0.601375 32.3706 1.63398 26.7683C1.03822 28.5254 -2.85256 41.2077 10.0462 40.7765C10.1831 40.774 10.3228 40.7631 10.4621 40.7575C10.5533 40.7549 10.6447 40.744 10.7332 40.7387C10.7681 40.7387 10.8083 40.7306 10.8459 40.7278C11.0258 40.7115 11.2109 40.6953 11.3987 40.6681C11.9809 40.5922 12.59 40.4892 13.2207 40.3509C13.8514 40.2179 14.5034 40.0526 15.1795 39.8547C15.3164 39.8194 15.4452 39.776 15.5821 39.7326C15.7941 39.6757 16.0033 39.608 16.2181 39.5374C23.1678 37.3057 31.8967 32.4331 39.3915 27.7472Z" fill="url(#paint7_linear_6_143)"/>
<path d="M141.329 13.9377H152.329L159.927 35.4728H160.02L167.664 13.9377H178.618V46.939H171.347V21.6284H171.253L162.584 46.939H157.037L148.693 21.6284H148.6V46.939H141.329V13.9377Z" fill="#26275D"/>
<path d="M191.109 30.4382C191.109 31.9926 191.35 33.4141 191.832 34.7035C192.314 35.9928 193.005 37.1121 193.907 38.0598C194.807 39.0075 195.887 39.7456 197.146 40.2733C198.404 40.8018 199.81 41.0661 201.364 41.0661C202.918 41.0661 204.324 40.8018 205.583 40.2733C206.842 39.7456 207.921 39.0075 208.823 38.0598C209.723 37.1121 210.414 35.9928 210.897 34.7035C211.378 33.4141 211.619 31.9926 211.619 30.4382C211.619 28.9165 211.378 27.5018 210.897 26.1965C210.414 24.8912 209.723 23.7658 208.823 22.8174C207.921 21.8697 206.842 21.1316 205.583 20.6031C204.324 20.0746 202.918 19.8111 201.364 19.8111C199.81 19.8111 198.404 20.0746 197.146 20.6031C195.887 21.1316 194.807 21.8697 193.907 22.8174C193.005 23.7658 192.314 24.8912 191.832 26.1965C191.35 27.5018 191.109 28.9165 191.109 30.4382ZM183.558 30.4382C183.558 27.7972 184.001 25.4045 184.887 23.2601C185.773 21.1157 187.008 19.2902 188.593 17.7829C190.178 16.2756 192.057 15.1191 194.233 14.3104C196.407 13.5025 198.785 13.0985 201.364 13.0985C203.944 13.0985 206.321 13.5025 208.496 14.3104C210.671 15.1191 212.552 16.2756 214.137 17.7829C215.721 19.2902 216.956 21.1157 217.842 23.2601C218.727 25.4045 219.17 27.7972 219.17 30.4382C219.17 33.08 218.727 35.4727 217.842 37.6163C216.956 39.7607 215.721 41.5862 214.137 43.0935C212.552 44.6008 210.671 45.7588 208.496 46.566C206.321 47.374 203.944 47.778 201.364 47.778C198.785 47.778 196.407 47.374 194.233 46.566C192.057 45.7588 190.178 44.6008 188.593 43.0935C187.008 41.5862 185.773 39.7607 184.887 37.6163C184.001 35.4727 183.558 33.08 183.558 30.4382Z" fill="#26275D"/>
<path d="M231.383 40.7867H237.908C238.468 40.7867 239.034 40.7245 239.609 40.6C240.184 40.4762 240.705 40.2582 241.171 39.9469C241.637 39.6371 242.017 39.2331 242.313 38.7357C242.609 38.2384 242.756 37.6324 242.756 36.9179C242.756 36.1418 242.561 35.5115 242.173 35.0301C241.785 34.5487 241.295 34.1835 240.705 33.9344C240.115 33.6861 239.477 33.5152 238.794 33.4211C238.11 33.3284 237.472 33.2821 236.883 33.2821H231.383V40.7867ZM231.383 27.1283H236.65C237.209 27.1283 237.76 27.0668 238.305 26.9423C238.848 26.8185 239.337 26.6165 239.772 26.3363C240.207 26.0569 240.558 25.6841 240.821 25.2178C241.085 24.7516 241.218 24.192 241.218 23.5397C241.218 22.8563 241.069 22.289 240.775 21.8387C240.479 21.3884 240.099 21.0391 239.633 20.7901C239.166 20.5417 238.638 20.3626 238.048 20.254C237.458 20.1454 236.883 20.0907 236.323 20.0907H231.383V27.1283ZM224.111 13.9377H236.416C237.845 13.9377 239.283 14.0387 240.728 14.2407C242.173 14.4427 243.47 14.8466 244.62 15.4526C245.77 16.0586 246.701 16.9052 247.417 17.9926C248.131 19.0815 248.489 20.5258 248.489 22.3277C248.489 24.1919 247.968 25.738 246.928 26.9658C245.886 28.1937 244.511 29.0715 242.803 29.5993V29.6927C243.89 29.8483 244.877 30.1513 245.762 30.6016C246.648 31.0519 247.409 31.6267 248.046 32.3261C248.683 33.0255 249.172 33.841 249.514 34.7735C249.857 35.7052 250.027 36.7007 250.027 37.7562C250.027 39.4966 249.655 40.95 248.909 42.1149C248.162 43.2805 247.2 44.2205 246.019 44.9351C244.837 45.6504 243.508 46.1629 242.034 46.4727C240.558 46.7841 239.089 46.939 237.629 46.939H224.111V13.9377" fill="#26275D"/>
<path d="M254.222 13.9377H261.494V46.939H254.222V13.9377Z" fill="#26275D"/>
<path d="M295.939 34.2137C295.939 36.1721 295.643 37.9747 295.054 39.621C294.463 41.268 293.586 42.6972 292.42 43.9091C291.255 45.1218 289.801 46.0694 288.062 46.7528C286.321 47.4362 284.317 47.778 282.048 47.778C279.749 47.778 277.729 47.4362 275.99 46.7528C274.248 46.0694 272.797 45.1218 271.631 43.9091C270.465 42.6972 269.587 41.268 268.997 39.621C268.407 37.9747 268.112 36.1721 268.112 34.2137V13.9376H275.384V33.9343C275.384 34.9601 275.547 35.9078 275.873 36.7773C276.199 37.6482 276.657 38.4015 277.248 39.0386C277.837 39.6757 278.545 40.1731 279.369 40.53C280.192 40.8876 281.086 41.0661 282.048 41.0661C283.012 41.0661 283.897 40.8876 284.705 40.53C285.513 40.1731 286.213 39.6757 286.803 39.0386C287.393 38.4015 287.852 37.6482 288.178 36.7773C288.504 35.9078 288.668 34.9601 288.668 33.9343V13.9376H295.939V34.2137" fill="#26275D"/>
<path d="M318.965 22.0011C318.375 21.2554 317.574 20.7041 316.565 20.3472C315.555 19.9896 314.599 19.8111 313.699 19.8111C313.17 19.8111 312.626 19.8734 312.067 19.9972C311.508 20.1217 310.979 20.3161 310.482 20.5796C309.985 20.8438 309.581 21.1939 309.271 21.6282C308.96 22.0641 308.805 22.5926 308.805 23.213C308.805 24.2085 309.177 24.9694 309.923 25.4971C310.669 26.0256 311.608 26.4759 312.743 26.8488C313.877 27.2216 315.097 27.5952 316.402 27.9681C317.707 28.3409 318.927 28.8694 320.061 29.5528C321.195 30.2362 322.135 31.1535 322.881 32.3032C323.627 33.4521 324 34.9913 324 36.9177C324 38.7516 323.657 40.3508 322.975 41.7183C322.291 43.0859 321.366 44.2204 320.201 45.1218C319.035 46.0223 317.684 46.6906 316.145 47.1249C314.608 47.5608 312.983 47.778 311.274 47.778C309.13 47.778 307.142 47.4514 305.309 46.7991C303.475 46.1461 301.765 45.0906 300.181 43.6296L305.356 37.9429C306.101 38.9376 307.04 39.7068 308.174 40.2505C309.31 40.7942 310.482 41.0661 311.694 41.0661C312.285 41.0661 312.883 40.9962 313.488 40.8557C314.094 40.716 314.638 40.5072 315.12 40.2262C315.602 39.9468 315.99 39.5907 316.286 39.1548C316.58 38.7197 316.728 38.2071 316.728 37.6163C316.728 36.6224 316.347 35.8379 315.586 35.2624C314.824 34.6875 313.869 34.1985 312.72 33.7945C311.569 33.3906 310.326 32.9866 308.991 32.5826C307.654 32.1794 306.411 31.6349 305.262 30.9515C304.112 30.2681 303.156 29.3668 302.395 28.2475C301.633 27.1282 301.253 25.6536 301.253 23.8197C301.253 22.0482 301.602 20.4945 302.302 19.1581C303.001 17.8224 303.933 16.7039 305.099 15.8018C306.264 14.9012 307.607 14.2254 309.13 13.7743C310.653 13.3248 312.222 13.0985 313.838 13.0985C315.703 13.0985 317.505 13.3627 319.246 13.8913C320.986 14.4198 322.555 15.3052 323.954 16.5482L318.965 22.0011" fill="#26275D"/>
<defs>
<linearGradient id="paint0_linear_6_143" x1="57.1081" y1="24.5744" x2="20.925" y2="33.5038" gradientUnits="userSpaceOnUse">
<stop stop-color="#60B0E0"/>
<stop offset="1" stop-color="#26275D"/>
</linearGradient>
<linearGradient id="paint1_linear_6_143" x1="115.827" y1="25.4203" x2="57.7223" y2="57.1867" gradientUnits="userSpaceOnUse">
<stop stop-color="#60B0E0"/>
<stop offset="1" stop-color="#26275D"/>
</linearGradient>
<linearGradient id="paint2_linear_6_143" x1="101.305" y1="43.0678" x2="77.8955" y2="9.42278" gradientUnits="userSpaceOnUse">
<stop stop-color="#60B0E0"/>
<stop offset="1" stop-color="#26275D"/>
</linearGradient>
<linearGradient id="paint3_linear_6_143" x1="8.24085" y1="54.6073" x2="59.8494" y2="15.9929" gradientUnits="userSpaceOnUse">
<stop stop-color="#F0D34F"/>
<stop offset="0.00037296" stop-color="#F0D34F"/>
<stop offset="1" stop-color="#9B7C1F"/>
</linearGradient>
<linearGradient id="paint4_linear_6_143" x1="21.4981" y1="24.7384" x2="31.5503" y2="42.9754" gradientUnits="userSpaceOnUse">
<stop stop-color="#60B0E0"/>
<stop offset="1" stop-color="#26275D"/>
</linearGradient>
<linearGradient id="paint5_linear_6_143" x1="85.4248" y1="4.07719" x2="43.9497" y2="44.9415" gradientUnits="userSpaceOnUse">
<stop stop-color="#F0D34F"/>
<stop offset="0.00037296" stop-color="#F0D34F"/>
<stop offset="1" stop-color="#9B7C1F"/>
</linearGradient>
<linearGradient id="paint6_linear_6_143" x1="120.123" y1="18.3318" x2="88.7128" y2="18.9794" gradientUnits="userSpaceOnUse">
<stop stop-color="#F0D34F"/>
<stop offset="0.00037296" stop-color="#F0D34F"/>
<stop offset="1" stop-color="#9B7C1F"/>
</linearGradient>
<linearGradient id="paint7_linear_6_143" x1="5.22236" y1="20.4033" x2="26.3089" y2="40.1108" gradientUnits="userSpaceOnUse">
<stop stop-color="#F0D34F"/>
<stop offset="0.00037296" stop-color="#F0D34F"/>
<stop offset="1" stop-color="#9B7C1F"/>
</linearGradient>
</defs>
</svg>
