<svg width="172" height="343" viewBox="0 0 172 343" fill="none" xmlns="http://www.w3.org/2000/svg">
<path d="M163.51 319.836C163.387 323.775 161.727 327.51 158.887 330.242C156.046 332.974 152.249 334.487 148.308 334.456H22.803C18.8804 334.481 15.1056 332.961 12.2942 330.225C9.48283 327.49 7.86052 323.758 7.77778 319.836V21.9311C7.82949 20.014 8.2599 18.1261 9.04423 16.376C9.82855 14.6259 10.9513 13.0483 12.3478 11.7339C13.7444 10.4195 15.3871 9.39436 17.1815 8.71744C18.9758 8.04052 20.8863 7.72522 22.803 7.78969H43.75C44.7224 7.75587 45.6686 8.10906 46.3811 8.77179C47.0935 9.43453 47.5141 10.3527 47.5505 11.3251V16.1191C47.616 18.0799 48.4497 19.9365 49.8716 21.2883C51.2935 22.6401 53.1898 23.3789 55.1515 23.3452H115.96C117.921 23.3789 119.818 22.6402 121.24 21.2883C122.661 19.9365 123.495 18.0799 123.561 16.1191V11.3251C123.597 10.3527 124.018 9.43453 124.73 8.77179C125.442 8.10906 126.389 7.75587 127.361 7.78969H148.308C152.198 7.65403 155.983 9.0666 158.833 11.7176C161.682 14.3686 163.365 18.0416 163.51 21.9311V319.836ZM80.7503 9.77909H96.127C96.6427 9.77909 97.1372 9.98395 97.5019 10.3486C97.8665 10.7133 98.0714 11.2078 98.0714 11.7235C98.0714 12.2392 97.8665 12.7338 97.5019 13.0985C97.1372 13.4631 96.6427 13.668 96.127 13.668H80.7503C80.2346 13.668 79.74 13.4631 79.3754 13.0985C79.0107 12.7338 78.8058 12.2392 78.8058 11.7235C78.8058 11.2078 79.0107 10.7133 79.3754 10.3486C79.74 9.98395 80.2346 9.77909 80.7503 9.77909ZM104.431 9.15687C104.939 9.15102 105.438 9.29657 105.864 9.57503C106.29 9.85348 106.624 10.2523 106.823 10.7207C107.022 11.1892 107.077 11.7061 106.981 12.206C106.885 12.7058 106.643 13.1658 106.285 13.5278C105.928 13.8897 105.47 14.1371 104.972 14.2385C104.473 14.34 103.955 14.2909 103.485 14.0975C103.014 13.9041 102.611 13.5752 102.328 13.1525C102.045 12.7298 101.893 12.2324 101.893 11.7235C101.891 11.3884 101.955 11.0562 102.082 10.7458C102.208 10.4354 102.395 10.153 102.63 9.91468C102.866 9.67633 103.146 9.48673 103.455 9.35669C103.764 9.22665 104.095 9.1588 104.431 9.15687ZM148.308 0.0119119H22.803C16.9559 -0.180054 11.2713 1.95514 6.9964 5.94907C2.7215 9.94301 0.205374 15.4695 0 21.3163V320.451C0.185223 326.343 2.68065 331.925 6.94727 335.992C11.2139 340.059 16.9092 342.285 22.803 342.188H148.308C154.202 342.285 159.897 340.059 164.164 335.992C168.43 331.925 170.926 326.343 171.111 320.451V21.3163C170.906 15.4695 168.39 9.94299 164.115 5.94905C159.84 1.95511 154.155 -0.180075 148.308 0.0119119Z" fill="#344258"/>
<path fill-rule="evenodd" clip-rule="evenodd" d="M95.7532 172.332L127.581 188.762V154.098L95.7532 137.673V172.332Z" fill="#4067A3"/>
<path fill-rule="evenodd" clip-rule="evenodd" d="M43.0051 189.1L74.8327 205.525V170.866L43.0051 154.437V189.1Z" fill="#4067A3"/>
<mask id="mask0_32_68" style="mask-type:alpha" maskUnits="userSpaceOnUse" x="43" y="154" width="32" height="52">
<path d="M74.8288 205.525L43 189.1V154.437L43.0051 154.439V189.1L74.8288 205.522V205.525Z" fill="white"/>
</mask>
<g mask="url(#mask0_32_68)">
<path fill-rule="evenodd" clip-rule="evenodd" d="M74.8288 205.525L43 189.1V154.437L43.0051 154.439V189.1L74.8288 205.522V205.525Z" fill="url(#paint0_linear_32_68)"/>
</g>
<mask id="mask1_32_68" style="mask-type:alpha" maskUnits="userSpaceOnUse" x="43" y="154" width="32" height="52">
<path d="M74.8289 205.522L43.0051 189.1V154.439L74.8289 170.866V205.522Z" fill="white"/>
</mask>
<g mask="url(#mask1_32_68)">
<path fill-rule="evenodd" clip-rule="evenodd" d="M74.8289 205.522L43.0051 189.1V154.439L74.8289 170.866V205.522Z" fill="url(#paint1_linear_32_68)"/>
</g>
<mask id="mask2_32_68" style="mask-type:alpha" maskUnits="userSpaceOnUse" x="95" y="137" width="33" height="52">
<path d="M127.581 188.762L95.7532 172.332V137.673L127.581 154.098V188.762Z" fill="white"/>
</mask>
<g mask="url(#mask2_32_68)">
<path fill-rule="evenodd" clip-rule="evenodd" d="M127.581 188.762L95.7532 172.332V137.673L127.581 154.098V188.762Z" fill="url(#paint2_linear_32_68)"/>
</g>
<path fill-rule="evenodd" clip-rule="evenodd" d="M88.0547 131L43.0051 154.248V188.912L88.0547 165.659V131Z" fill="#4185B9"/>
<path fill-rule="evenodd" clip-rule="evenodd" d="M82.5325 177.341V212L127.581 188.752V154.088L82.5325 177.341Z" fill="#4185B9"/>
<defs>
<linearGradient id="paint0_linear_32_68" x1="56.2499" y1="183.284" x2="82.5313" y2="183.284" gradientUnits="userSpaceOnUse">
<stop stop-color="#787572"/>
<stop offset="1" stop-color="#FFFFFE"/>
</linearGradient>
<linearGradient id="paint1_linear_32_68" x1="56.25" y1="183.284" x2="82.5313" y2="183.284" gradientUnits="userSpaceOnUse">
<stop stop-color="#344258"/>
<stop offset="1" stop-color="#4168A3"/>
</linearGradient>
<linearGradient id="paint2_linear_32_68" x1="111.73" y1="159.915" x2="88.0536" y2="159.915" gradientUnits="userSpaceOnUse">
<stop stop-color="#344258"/>
<stop offset="1" stop-color="#4168A3"/>
</linearGradient>
</defs>
</svg>
