<svg width="322" height="112" viewBox="0 0 322 112" fill="none" xmlns="http://www.w3.org/2000/svg">
<path fill-rule="evenodd" clip-rule="evenodd" d="M154.345 71.0284C166.376 71.0284 176.129 61.2494 176.129 49.1864C176.129 37.1235 166.376 27.3444 154.345 27.3444C142.315 27.3444 132.562 37.1235 132.562 49.1864C132.562 61.2494 142.315 71.0284 154.345 71.0284ZM296.691 71.0284C308.722 71.0284 318.474 61.2494 318.474 49.1864C318.474 37.1235 308.722 27.3444 296.691 27.3444C284.661 27.3444 274.908 37.1235 274.908 49.1864C274.908 61.2494 284.661 71.0284 296.691 71.0284Z" stroke="#2DCCC1" stroke-width="3.60703"/>
<path d="M114.866 17.1523C113.977 11.8182 108.11 3.04884 97.155 3.57615C87.0083 4.12248 81.3216 12.5969 81.5923 19.2932C81.8383 25.3713 84.9781 31.9493 97.1721 34.5374C109.366 37.1256 116.212 44.7428 116.175 53.2761C116.144 60.3494 110.605 70.7223 97.2609 70.5233C86.6103 70.3644 79.9936 60.8767 79.6451 52.4446M194.281 27.7771V70.2225M225.746 40.546C225.746 35.5645 230.787 27.3177 241.941 27.3177C251.618 27.3177 256.689 34.3421 256.689 42.7121V69.941M194.29 42.2456C194.29 34.3455 200.66 27.3177 210.337 27.3177C220.014 27.3177 225.713 32.7475 225.713 42.7121C225.713 49.3553 225.713 58.4315 225.713 69.941" stroke="#2DCCC1" stroke-width="3.60703" stroke-linecap="round" stroke-linejoin="round"/>
<mask id="mask0_6_194" style="mask-type:alpha" maskUnits="userSpaceOnUse" x="4" y="0" width="63" height="47">
<path d="M57.4421 0L66.4539 15.6507L13.5176 46.2956L4.50577 30.6449" fill="white"/>
</mask>
<g mask="url(#mask0_6_194)">
<path fill-rule="evenodd" clip-rule="evenodd" d="M-0.895462 29.1938L58.8895 -5.41602L71.8551 17.1018L12.0701 51.7114" fill="#2DCCC1"/>
</g>
<mask id="mask1_6_194" style="mask-type:alpha" maskUnits="userSpaceOnUse" x="0" y="27" width="62" height="48">
<path d="M52.9363 27.8606L61.9478 43.5114L9.01154 74.1563L0 58.5058" fill="white"/>
</mask>
<g mask="url(#mask1_6_194)">
<path fill-rule="evenodd" clip-rule="evenodd" d="M-5.40123 57.0545L54.3835 22.4449L67.3493 44.9624L7.56436 79.5723" fill="#2DCCC1"/>
</g>
<path d="M88.9265 89.4925C90.3717 89.4925 91.5335 89.9374 92.4121 90.8273C93.2907 91.7172 93.73 92.8872 93.73 94.3373C93.73 95.771 93.2825 96.9246 92.3875 97.798C91.4925 98.6714 90.3142 99.1081 88.8526 99.1081H84.0491C83.9834 99.1081 83.9506 99.141 83.9506 99.2069V106.573C83.9506 106.738 83.8685 106.82 83.7042 106.82H82.4479C82.2837 106.82 82.2016 106.738 82.2016 106.573V89.7397C82.2016 89.5749 82.2837 89.4925 82.4479 89.4925H88.9265ZM88.7294 97.6497C89.6984 97.6497 90.4866 97.3489 91.0943 96.7474C91.7019 96.1459 92.0057 95.3508 92.0057 94.3621C92.0057 93.3568 91.7019 92.5494 91.0943 91.9396C90.4866 91.3299 89.6984 91.025 88.7294 91.025H84.0491C83.9834 91.025 83.9506 91.058 83.9506 91.1239V97.5508C83.9506 97.6167 83.9834 97.6497 84.0491 97.6497H88.7294Z" fill="black"/>
<path d="M100.849 94.1149C102.327 94.1149 103.468 94.4939 104.273 95.2519C105.078 96.01 105.48 97.0152 105.48 98.2676V106.573C105.48 106.738 105.398 106.82 105.234 106.82H103.978C103.813 106.82 103.731 106.738 103.731 106.573V105.56C103.731 105.527 103.719 105.502 103.694 105.486C103.67 105.469 103.641 105.477 103.608 105.51C103.197 106.005 102.664 106.379 102.007 106.635C101.35 106.89 100.619 107.018 99.8145 107.018C98.6485 107.018 97.6714 106.721 96.8831 106.128C96.0948 105.535 95.7007 104.629 95.7007 103.409C95.7007 102.173 96.1482 101.197 97.0432 100.48C97.9382 99.7631 99.1822 99.4047 100.775 99.4047H103.633C103.698 99.4047 103.731 99.3717 103.731 99.3058V98.3665C103.731 97.5261 103.497 96.8628 103.029 96.3766C102.561 95.8905 101.834 95.6474 100.849 95.6474C100.061 95.6474 99.4203 95.7999 98.9277 96.1047C98.435 96.4096 98.1312 96.8339 98.0162 97.3778C97.967 97.5425 97.8684 97.6167 97.7206 97.6002L96.3904 97.4272C96.2098 97.3942 96.1359 97.3283 96.1687 97.2294C96.3001 96.3066 96.7928 95.5568 97.6467 94.98C98.5007 94.4033 99.5681 94.1149 100.849 94.1149ZM100.159 105.51C101.128 105.51 101.966 105.267 102.672 104.781C103.378 104.295 103.731 103.64 103.731 102.816V100.888C103.731 100.822 103.698 100.789 103.633 100.789H101.046C99.9623 100.789 99.0919 101.011 98.435 101.456C97.7781 101.901 97.4497 102.519 97.4497 103.31C97.4497 104.035 97.7001 104.583 98.201 104.954C98.7019 105.325 99.3546 105.51 100.159 105.51Z" fill="black"/>
<path d="M114.151 94.189C114.693 94.189 115.161 94.2961 115.555 94.5104C115.687 94.5763 115.736 94.6834 115.703 94.8317L115.432 96.0429C115.383 96.2077 115.276 96.2572 115.112 96.1913C114.833 96.0759 114.512 96.0182 114.151 96.0182L113.831 96.0429C112.977 96.0759 112.271 96.3931 111.712 96.9946C111.154 97.5961 110.875 98.3583 110.875 99.2811V106.573C110.875 106.738 110.793 106.82 110.629 106.82H109.372C109.208 106.82 109.126 106.738 109.126 106.573V94.5598C109.126 94.395 109.208 94.3126 109.372 94.3126H110.629C110.793 94.3126 110.875 94.395 110.875 94.5598V96.0677C110.875 96.1171 110.887 96.1459 110.912 96.1542C110.936 96.1624 110.957 96.1501 110.973 96.1171C111.318 95.5074 111.758 95.0336 112.291 94.6958C112.825 94.3579 113.445 94.189 114.151 94.189Z" fill="black"/>
<path d="M124.029 95.5238C124.029 95.6886 123.947 95.771 123.783 95.771H120.999C120.933 95.771 120.901 95.804 120.901 95.8699V103.162C120.901 103.953 121.077 104.509 121.43 104.83C121.783 105.152 122.338 105.312 123.093 105.312H123.709C123.873 105.312 123.955 105.395 123.955 105.56V106.573C123.955 106.738 123.873 106.82 123.709 106.82C123.512 106.837 123.208 106.845 122.797 106.845C121.615 106.845 120.72 106.623 120.112 106.178C119.505 105.733 119.201 104.909 119.201 103.706V95.8699C119.201 95.804 119.168 95.771 119.102 95.771H117.6C117.436 95.771 117.353 95.6886 117.353 95.5238V94.5598C117.353 94.395 117.436 94.3126 117.6 94.3126H119.102C119.168 94.3126 119.201 94.2797 119.201 94.2138V91.3464C119.201 91.1816 119.283 91.0992 119.447 91.0992H120.654C120.819 91.0992 120.901 91.1816 120.901 91.3464V94.2138C120.901 94.2797 120.933 94.3126 120.999 94.3126H123.783C123.947 94.3126 124.029 94.395 124.029 94.5598V95.5238Z" fill="black"/>
<path d="M137.085 107.018C135.902 107.018 134.884 106.713 134.03 106.103C133.176 105.494 132.585 104.653 132.257 103.582C132.027 102.824 131.912 101.811 131.912 100.542C131.912 99.2729 132.027 98.2676 132.257 97.5261C132.569 96.4714 133.152 95.6392 134.006 95.0295C134.86 94.4197 135.894 94.1149 137.109 94.1149C138.275 94.1149 139.281 94.4197 140.127 95.0295C140.973 95.6392 141.552 96.4632 141.864 97.5013C142.094 98.2099 142.209 99.2234 142.209 100.542C142.209 101.877 142.094 102.89 141.864 103.582C141.552 104.653 140.973 105.494 140.127 106.103C139.281 106.713 138.267 107.018 137.085 107.018ZM137.085 105.486C137.873 105.486 138.546 105.267 139.105 104.83C139.663 104.394 140.041 103.805 140.238 103.063C140.386 102.47 140.46 101.638 140.46 100.566C140.46 99.4788 140.394 98.6466 140.262 98.0699C140.065 97.3283 139.684 96.7392 139.117 96.3025C138.55 95.8658 137.865 95.6474 137.06 95.6474C136.255 95.6474 135.574 95.8658 135.016 96.3025C134.457 96.7392 134.08 97.3283 133.882 98.0699C133.751 98.6466 133.685 99.4788 133.685 100.566C133.685 101.654 133.751 102.486 133.882 103.063C134.063 103.805 134.437 104.394 135.003 104.83C135.57 105.267 136.264 105.486 137.085 105.486Z" fill="black"/>
<path d="M150.535 91.0498C149.631 91.0498 149.016 91.2516 148.687 91.6554C148.359 92.0591 148.194 92.7471 148.194 93.7194V94.2138C148.194 94.2797 148.227 94.3126 148.293 94.3126H151.052C151.216 94.3126 151.298 94.395 151.298 94.5598V95.6722C151.298 95.8369 151.216 95.9193 151.052 95.9193H148.293C148.227 95.9193 148.194 95.9523 148.194 96.0182V106.573C148.194 106.738 148.112 106.82 147.948 106.82H146.716C146.552 106.82 146.47 106.738 146.47 106.573V96.0182C146.47 95.9523 146.437 95.9193 146.372 95.9193H144.721C144.557 95.9193 144.475 95.8369 144.475 95.6722V94.5598C144.475 94.395 144.557 94.3126 144.721 94.3126H146.372C146.437 94.3126 146.47 94.2797 146.47 94.2138V93.6205C146.47 92.5988 146.585 91.7954 146.815 91.2104C147.045 90.6254 147.443 90.197 148.01 89.925C148.576 89.6531 149.369 89.5172 150.387 89.5172H151.101C151.265 89.5172 151.348 89.5996 151.348 89.7644V90.8026C151.348 90.9674 151.265 91.0498 151.101 91.0498H150.535Z" fill="black"/>
<path d="M164.896 95.5238C164.896 95.6886 164.814 95.771 164.65 95.771H161.866C161.8 95.771 161.767 95.804 161.767 95.8699V103.162C161.767 103.953 161.944 104.509 162.297 104.83C162.65 105.152 163.204 105.312 163.96 105.312H164.576C164.74 105.312 164.822 105.395 164.822 105.56V106.573C164.822 106.738 164.74 106.82 164.576 106.82C164.379 106.837 164.075 106.845 163.664 106.845C162.482 106.845 161.587 106.623 160.979 106.178C160.372 105.733 160.068 104.909 160.068 103.706V95.8699C160.068 95.804 160.035 95.771 159.969 95.771H158.467C158.302 95.771 158.22 95.6886 158.22 95.5238V94.5598C158.22 94.395 158.302 94.3126 158.467 94.3126H159.969C160.035 94.3126 160.068 94.2797 160.068 94.2138V91.3464C160.068 91.1816 160.15 91.0992 160.314 91.0992H161.521C161.685 91.0992 161.767 91.1816 161.767 91.3464V94.2138C161.767 94.2797 161.8 94.3126 161.866 94.3126H164.65C164.814 94.3126 164.896 94.395 164.896 94.5598V95.5238Z" fill="black"/>
<path d="M173.444 94.1396C174.757 94.1396 175.804 94.5269 176.584 95.3014C177.364 96.0759 177.754 97.1141 177.754 98.4159V106.573C177.754 106.738 177.672 106.82 177.508 106.82H176.252C176.088 106.82 176.006 106.738 176.006 106.573V98.762C176.006 97.8556 175.73 97.1141 175.18 96.5373C174.63 95.9605 173.92 95.6722 173.05 95.6722C172.146 95.6722 171.416 95.9523 170.857 96.5126C170.299 97.0729 170.02 97.8062 170.02 98.7126V106.573C170.02 106.738 169.938 106.82 169.773 106.82H168.517C168.353 106.82 168.271 106.738 168.271 106.573V89.7644C168.271 89.5996 168.353 89.5172 168.517 89.5172H169.773C169.938 89.5172 170.02 89.5996 170.02 89.7644V95.6227C170.02 95.6557 170.032 95.6804 170.057 95.6969C170.081 95.7134 170.102 95.7051 170.118 95.6722C170.841 94.6504 171.949 94.1396 173.444 94.1396Z" fill="black"/>
<path d="M190.933 98.4654C190.999 98.9268 191.032 99.5036 191.032 100.196V100.987C191.032 101.151 190.95 101.234 190.786 101.234H182.829C182.763 101.234 182.73 101.267 182.73 101.333C182.763 102.239 182.813 102.824 182.878 103.088C183.059 103.829 183.445 104.414 184.036 104.843C184.627 105.271 185.383 105.486 186.302 105.486C186.992 105.486 187.6 105.329 188.125 105.016C188.651 104.703 189.061 104.258 189.357 103.681C189.455 103.533 189.57 103.5 189.702 103.582L190.662 104.151C190.794 104.233 190.827 104.348 190.761 104.497C190.35 105.288 189.735 105.91 188.913 106.363C188.092 106.816 187.148 107.043 186.081 107.043C184.915 107.026 183.937 106.746 183.149 106.202C182.361 105.659 181.794 104.9 181.449 103.928C181.154 103.137 181.006 102 181.006 100.517C181.006 99.8249 181.018 99.2605 181.043 98.8238C181.068 98.3871 181.129 97.9957 181.228 97.6497C181.507 96.5785 182.069 95.7216 182.915 95.0789C183.761 94.4362 184.783 94.1149 185.982 94.1149C187.476 94.1149 188.626 94.4939 189.431 95.2519C190.235 96.01 190.736 97.0811 190.933 98.4654ZM185.982 95.6474C185.177 95.6474 184.508 95.8575 183.974 96.2778C183.441 96.698 183.092 97.2624 182.927 97.971C182.829 98.3171 182.763 98.8774 182.73 99.6519C182.73 99.7178 182.763 99.7508 182.829 99.7508H189.209C189.275 99.7508 189.308 99.7178 189.308 99.6519C189.275 98.9103 189.225 98.383 189.16 98.0699C188.979 97.3283 188.614 96.7392 188.064 96.3025C187.513 95.8658 186.82 95.6474 185.982 95.6474Z" fill="black"/>
<path d="M205.024 107.018C203.743 107.018 202.618 106.767 201.649 106.264C200.68 105.762 199.933 105.057 199.407 104.151C198.882 103.244 198.619 102.198 198.619 101.011V95.3014C198.619 94.1149 198.882 93.0684 199.407 92.1621C199.933 91.2557 200.68 90.5554 201.649 90.061C202.618 89.5666 203.743 89.3194 205.024 89.3194C206.288 89.3194 207.401 89.5543 208.361 90.0239C209.322 90.4936 210.069 91.161 210.603 92.0261C211.137 92.8913 211.404 93.8924 211.404 95.0295C211.404 95.1778 211.305 95.2684 211.108 95.3014L208.226 95.4744H208.177C208.013 95.4744 207.93 95.3838 207.93 95.2025C207.93 94.3291 207.664 93.6287 207.13 93.1014C206.596 92.5741 205.894 92.3104 205.024 92.3104C204.137 92.3104 203.427 92.5741 202.893 93.1014C202.359 93.6287 202.092 94.3291 202.092 95.2025V101.16C202.092 102.017 202.359 102.709 202.893 103.236C203.427 103.763 204.137 104.027 205.024 104.027C205.894 104.027 206.596 103.763 207.13 103.236C207.664 102.709 207.93 102.017 207.93 101.16C207.93 100.978 208.029 100.888 208.226 100.888L211.108 101.011C211.19 101.011 211.26 101.036 211.317 101.086C211.375 101.135 211.404 101.193 211.404 101.259C211.404 102.396 211.137 103.401 210.603 104.274C210.069 105.148 209.322 105.823 208.361 106.301C207.401 106.779 206.288 107.018 205.024 107.018Z" fill="black"/>
<path d="M214.237 106.82C214.154 106.82 214.085 106.791 214.027 106.734C213.97 106.676 213.941 106.606 213.941 106.524V89.8138C213.941 89.7314 213.97 89.6614 214.027 89.6037C214.085 89.546 214.154 89.5172 214.237 89.5172H217.119C217.201 89.5172 217.271 89.546 217.328 89.6037C217.385 89.6614 217.414 89.7314 217.414 89.8138V106.524C217.414 106.606 217.385 106.676 217.328 106.734C217.271 106.791 217.201 106.82 217.119 106.82H214.237Z" fill="black"/>
<path d="M235.027 106.45C235.093 106.548 235.126 106.614 235.126 106.647C235.126 106.763 235.035 106.82 234.855 106.82H231.628C231.48 106.82 231.357 106.763 231.258 106.647L230.297 105.609C230.265 105.56 230.207 105.551 230.125 105.584C228.598 106.54 226.956 107.018 225.198 107.018C223.655 107.018 222.37 106.651 221.343 105.918C220.317 105.185 219.804 104.101 219.804 102.668C219.804 101.563 220.099 100.632 220.69 99.8743C221.282 99.1163 222.086 98.4324 223.105 97.8227C223.203 97.7568 223.211 97.6991 223.129 97.6497C222.308 96.6444 221.766 95.8658 221.503 95.3137C221.241 94.7617 221.109 94.1726 221.109 93.5463C221.109 92.7718 221.319 92.0591 221.737 91.4082C222.156 90.7572 222.747 90.2464 223.511 89.8756C224.275 89.5048 225.149 89.3194 226.134 89.3194C227.136 89.3194 228.035 89.5089 228.832 89.888C229.628 90.267 230.248 90.7984 230.692 91.4823C231.135 92.1662 231.357 92.9449 231.357 93.8183C231.357 94.84 231.073 95.7257 230.507 96.4755C229.94 97.2253 229.173 97.9051 228.204 98.5148C228.122 98.5643 228.113 98.6219 228.179 98.6878L230.371 101.184C230.437 101.25 230.503 101.25 230.568 101.184C231.193 100.492 231.702 99.8331 232.096 99.2069C232.194 99.0257 232.326 98.9927 232.49 99.1081L234.633 100.319C234.814 100.418 234.855 100.55 234.756 100.715C234.066 101.802 233.344 102.75 232.588 103.557C232.539 103.607 232.556 103.681 232.638 103.78L235.027 106.45ZM226.208 92.4834C225.716 92.4834 225.322 92.6112 225.026 92.8666C224.73 93.122 224.583 93.4639 224.583 93.8924C224.583 94.1231 224.665 94.3785 224.829 94.6587C224.993 94.9388 225.354 95.4167 225.913 96.0924C225.946 96.1583 226.003 96.1748 226.085 96.1418C226.676 95.7628 227.124 95.4003 227.428 95.0542C227.732 94.7081 227.883 94.3209 227.883 93.8924C227.883 93.4639 227.727 93.122 227.415 92.8666C227.103 92.6112 226.701 92.4834 226.208 92.4834ZM225.322 104.101C226.11 104.101 226.997 103.821 227.982 103.261C228.08 103.195 228.089 103.137 228.007 103.088L227.243 102.223L226.676 101.605C226.315 101.226 225.896 100.764 225.42 100.22C225.387 100.171 225.33 100.163 225.248 100.196C224.656 100.558 224.205 100.904 223.893 101.234C223.581 101.563 223.4 101.942 223.351 102.371C223.334 102.42 223.326 102.503 223.326 102.618C223.326 103.063 223.511 103.421 223.881 103.693C224.25 103.965 224.73 104.101 225.322 104.101Z" fill="black"/>
<path d="M247.41 89.5172C247.492 89.5172 247.562 89.546 247.62 89.6037C247.677 89.6614 247.706 89.7314 247.706 89.8138V92.2363C247.706 92.3186 247.677 92.3887 247.62 92.4464C247.562 92.504 247.492 92.5329 247.41 92.5329H243.001C242.919 92.5329 242.878 92.5741 242.878 92.6565V106.524C242.878 106.606 242.849 106.676 242.791 106.734C242.734 106.791 242.664 106.82 242.582 106.82H239.7C239.618 106.82 239.548 106.791 239.491 106.734C239.433 106.676 239.404 106.606 239.404 106.524V92.6565C239.404 92.5741 239.363 92.5329 239.281 92.5329H234.995C234.913 92.5329 234.843 92.504 234.786 92.4464C234.728 92.3887 234.699 92.3186 234.699 92.2363V89.8138C234.699 89.7314 234.728 89.6614 234.786 89.6037C234.843 89.546 234.913 89.5172 234.995 89.5172H247.41Z" fill="black"/>
<path d="M265.723 90.8026C265.723 90.9674 265.641 91.0498 265.477 91.0498H256.436C256.37 91.0498 256.338 91.0827 256.338 91.1486V97.2542C256.338 97.3201 256.37 97.353 256.436 97.353H262.767C262.931 97.353 263.013 97.4354 263.013 97.6002V98.6384C263.013 98.8032 262.931 98.8856 262.767 98.8856H256.436C256.37 98.8856 256.338 98.9186 256.338 98.9845V106.573C256.338 106.738 256.255 106.82 256.091 106.82H254.835C254.671 106.82 254.589 106.738 254.589 106.573V89.7644C254.589 89.5996 254.671 89.5172 254.835 89.5172H265.477C265.641 89.5172 265.723 89.5996 265.723 89.7644V90.8026Z" fill="black"/>
<path d="M271.758 94.1149C273.236 94.1149 274.377 94.4939 275.182 95.2519C275.987 96.01 276.389 97.0152 276.389 98.2676V106.573C276.389 106.738 276.307 106.82 276.143 106.82H274.886C274.722 106.82 274.64 106.738 274.64 106.573V105.56C274.64 105.527 274.628 105.502 274.603 105.486C274.579 105.469 274.55 105.477 274.517 105.51C274.106 106.005 273.573 106.379 272.916 106.635C272.259 106.89 271.528 107.018 270.723 107.018C269.557 107.018 268.58 106.721 267.792 106.128C267.004 105.535 266.61 104.629 266.61 103.409C266.61 102.173 267.057 101.197 267.952 100.48C268.847 99.7631 270.091 99.4047 271.684 99.4047H274.542C274.607 99.4047 274.64 99.3717 274.64 99.3058V98.3665C274.64 97.5261 274.406 96.8628 273.938 96.3766C273.47 95.8905 272.743 95.6474 271.758 95.6474C270.97 95.6474 270.329 95.7999 269.837 96.1047C269.344 96.4096 269.04 96.8339 268.925 97.3778C268.876 97.5425 268.777 97.6167 268.63 97.6002L267.299 97.4272C267.119 97.3942 267.045 97.3283 267.078 97.2294C267.209 96.3066 267.702 95.5568 268.556 94.98C269.41 94.4033 270.477 94.1149 271.758 94.1149ZM271.068 105.51C272.037 105.51 272.875 105.267 273.581 104.781C274.287 104.295 274.64 103.64 274.64 102.816V100.888C274.64 100.822 274.607 100.789 274.542 100.789H271.955C270.871 100.789 270.001 101.011 269.344 101.456C268.687 101.901 268.359 102.519 268.359 103.31C268.359 104.035 268.609 104.583 269.11 104.954C269.611 105.325 270.264 105.51 271.068 105.51Z" fill="black"/>
<path d="M292.647 94.1396C293.879 94.1396 294.852 94.5104 295.566 95.2519C296.281 95.9935 296.638 97.007 296.638 98.2923V106.573C296.638 106.738 296.556 106.82 296.391 106.82H295.16C294.995 106.82 294.913 106.738 294.913 106.573V98.6384C294.913 97.7321 294.655 97.0111 294.137 96.4755C293.62 95.9399 292.943 95.6722 292.105 95.6722C291.235 95.6722 290.533 95.9358 289.999 96.4632C289.465 96.9905 289.198 97.6991 289.198 98.589V106.573C289.198 106.738 289.116 106.82 288.952 106.82H287.696C287.532 106.82 287.449 106.738 287.449 106.573V98.6384C287.449 97.7321 287.195 97.0111 286.686 96.4755C286.177 95.9399 285.495 95.6722 284.641 95.6722C283.771 95.6722 283.077 95.9358 282.56 96.4632C282.042 96.9905 281.784 97.6991 281.784 98.589V106.573C281.784 106.738 281.702 106.82 281.537 106.82H280.281C280.117 106.82 280.035 106.738 280.035 106.573V94.5598C280.035 94.395 280.117 94.3126 280.281 94.3126H281.537C281.702 94.3126 281.784 94.395 281.784 94.5598V95.5486C281.784 95.5815 281.796 95.6021 281.821 95.6104C281.845 95.6186 281.874 95.6062 281.907 95.5733C282.268 95.0954 282.732 94.737 283.299 94.498C283.865 94.2591 284.493 94.1396 285.183 94.1396C286.037 94.1396 286.768 94.3126 287.376 94.6587C287.983 95.0048 288.443 95.5074 288.755 96.1665C288.788 96.2489 288.829 96.2489 288.878 96.1665C289.239 95.4909 289.749 94.9842 290.405 94.6463C291.062 94.3085 291.81 94.1396 292.647 94.1396Z" fill="black"/>
<path d="M301.589 92.0385C301.195 92.0385 300.866 91.9067 300.604 91.643C300.341 91.3793 300.21 91.0498 300.21 90.6543C300.21 90.2423 300.341 89.9086 300.604 89.6531C300.866 89.3977 301.195 89.27 301.589 89.27C301.983 89.27 302.312 89.3977 302.574 89.6531C302.837 89.9086 302.969 90.2423 302.969 90.6543C302.969 91.0498 302.837 91.3793 302.574 91.643C302.312 91.9067 301.983 92.0385 301.589 92.0385ZM300.899 106.796C300.735 106.796 300.653 106.713 300.653 106.548V94.5351C300.653 94.3703 300.735 94.2879 300.899 94.2879H302.156C302.32 94.2879 302.402 94.3703 302.402 94.5351V106.548C302.402 106.713 302.32 106.796 302.156 106.796H300.899Z" fill="black"/>
<path d="M306.934 106.82C306.77 106.82 306.688 106.738 306.688 106.573V89.7644C306.688 89.5996 306.77 89.5172 306.934 89.5172H308.191C308.355 89.5172 308.437 89.5996 308.437 89.7644V106.573C308.437 106.738 308.355 106.82 308.191 106.82H306.934Z" fill="black"/>
<path d="M311.787 111.764C311.672 111.764 311.615 111.682 311.615 111.517V110.528C311.615 110.363 311.697 110.281 311.861 110.281H311.96C312.6 110.264 313.097 110.17 313.45 109.997C313.803 109.824 314.107 109.502 314.361 109.033C314.616 108.563 314.891 107.85 315.187 106.894C315.22 106.829 315.22 106.779 315.187 106.746L311.024 94.5845L310.999 94.4857C310.999 94.3703 311.073 94.3126 311.221 94.3126H312.526C312.674 94.3126 312.773 94.3785 312.822 94.5104L316.024 104.497C316.041 104.53 316.065 104.546 316.098 104.546C316.131 104.546 316.156 104.53 316.172 104.497L319.325 94.5104C319.374 94.3785 319.473 94.3126 319.621 94.3126H320.902C321.082 94.3126 321.148 94.4033 321.099 94.5845L316.542 107.908C316.147 109.012 315.778 109.828 315.433 110.355C315.088 110.882 314.657 111.249 314.14 111.455C313.622 111.661 312.896 111.764 311.96 111.764H311.787Z" fill="black"/>
</svg>
