<svg width="200" height="200" viewBox="0 0 200 200" fill="none" xmlns="http://www.w3.org/2000/svg">
<path d="M142.111 64.5412H111.856C109.023 64.5412 106.728 62.2457 106.728 59.4131V25.13C106.728 22.9981 108.047 21.0871 110.041 20.3338C112.037 19.5792 114.289 20.1385 115.701 21.7367L145.956 56.0199C147.289 57.5315 147.614 59.6842 146.785 61.5228C145.956 63.3604 144.127 64.5411 142.111 64.5411L142.111 64.5412ZM116.984 54.285H130.745L116.984 38.6904V54.285Z" fill="#4185B9"/>
<path d="M55.615 47.009H92.5363V57.2652H55.615V47.009Z" fill="#4185B9"/>
<path d="M55.615 70.9397H123.306V81.1959H55.615V70.9397Z" fill="#4185B9"/>
<path d="M55.615 94.8704H100.06V105.127H55.615V94.8704Z" fill="#4185B9"/>
<path d="M55.615 118.804H99.3754V129.06H55.615V118.804Z" fill="#4185B9"/>
<path d="M55.615 142.735H100.06V152.991H55.615V142.735Z" fill="#4185B9"/>
<path d="M137.325 180H40.9145C35.4482 180 31 175.552 31 170.085V29.9145C31 24.4482 35.4479 20 40.9145 20H111.856V30.2562H41.2584V169.743H136.984V153.395H147.241V170.085C147.241 175.551 142.793 179.999 137.326 179.999L137.325 180Z" fill="#4185B9"/>
<path d="M136.981 59.4119H147.237V94.4671H136.981V59.4119Z" fill="#4185B9"/>
<path d="M133.221 159.829C113.428 159.829 97.325 143.726 97.325 123.933C97.325 104.141 113.429 88.0374 133.221 88.0374C153.013 88.0374 169.117 104.141 169.117 123.933C169.117 143.726 153.013 159.829 133.221 159.829V159.829ZM133.221 98.2898C119.083 98.2898 107.58 109.793 107.58 123.931C107.58 138.068 119.083 149.571 133.221 149.571C147.359 149.571 158.862 138.068 158.862 123.931C158.862 109.793 147.359 98.2898 133.221 98.2898Z" fill="#4185B9"/>
<path d="M129.539 138.231C128.501 138.231 127.457 137.917 126.558 137.275L116.368 129.989L122.332 121.646L128.86 126.313L143.195 110.936L150.697 117.929L133.29 136.599C132.289 137.675 130.919 138.231 129.538 138.231L129.539 138.231Z" fill="#4185B9"/>
</svg>
