<svg width="119" height="188" viewBox="0 0 119 188" fill="none" xmlns="http://www.w3.org/2000/svg">
<mask id="mask0_6_255" style="mask-type:alpha" maskUnits="userSpaceOnUse" x="0" y="52" width="118" height="80">
<path d="M0 52.1914H117.631V131.864H0V52.1914Z" fill="white"/>
</mask>
<g mask="url(#mask0_6_255)">
<path fill-rule="evenodd" clip-rule="evenodd" d="M2.35397 54.3525C0.706562 55.7988 -0.111563 57.7476 -0.111563 60.2158V76.8827C-0.111563 79.3509 0.706562 81.4152 2.35397 83.055C3.99208 84.7042 5.84216 85.5232 7.9042 85.5232H44.2829V96.6339H-0.111563V107.744H47.3657C49.4185 107.744 51.2667 106.924 52.916 105.274C54.5522 103.636 55.3815 101.572 55.3815 99.1039V82.4371C55.3815 79.9689 54.5522 78.02 52.916 76.5737C51.2667 75.1367 49.4185 74.4126 47.3657 74.4126H10.987V63.302H55.3815V52.1914H7.9042C5.84216 52.1914 3.99208 52.9155 2.35397 54.3525Z" fill="white"/>
<path fill-rule="evenodd" clip-rule="evenodd" d="M106.533 52.1914V96.6339H95.4343V64.5008H84.3357V96.6339H73.2371V52.1914H62.1385V99.1039C62.1385 101.572 62.9584 103.636 64.6058 105.274C66.2439 106.924 68.0922 107.744 70.1542 107.744H109.616C111.668 107.744 113.517 106.924 115.164 105.274C116.802 103.636 117.631 101.572 117.631 99.1039V52.1914H106.533Z" fill="white"/>
<path fill-rule="evenodd" clip-rule="evenodd" d="M18.1178 131.864H13.9193V123.388L10.1708 129.18V129.203H7.83541V129.18L4.06273 123.335L4.08505 131.864H-0.111563V114.959H2.99173L9.00309 123.981L14.9866 114.959H18.1178V131.864Z" fill="white"/>
</g>
<path fill-rule="evenodd" clip-rule="evenodd" d="M39.283 123.41C39.283 120.752 37.3214 118.514 34.59 118.514C31.8585 118.514 29.895 120.752 29.895 123.41C29.895 126.07 31.8585 128.309 34.59 128.309C37.3214 128.309 39.283 126.07 39.283 123.41ZM43.554 123.41C43.554 128.331 39.7051 132.212 34.59 132.212C29.499 132.212 25.6501 128.331 25.6501 123.41C25.6501 118.488 29.499 114.611 34.59 114.611C39.7051 114.611 43.554 118.488 43.554 123.41Z" fill="white"/>
<path fill-rule="evenodd" clip-rule="evenodd" d="M59.3568 128.382C61.0693 128.382 61.8391 127.611 61.8391 126.617C61.8391 125.571 60.9708 125.052 59.4312 125.052H55.2588V128.382H59.3568ZM55.2588 121.844H58.76C60.3256 121.844 61.1939 121.122 61.1939 120.03C61.1939 118.959 60.3739 118.388 58.76 118.388H55.2588V121.844ZM65.9613 127.162C65.9613 129.973 63.7022 131.864 59.9035 131.864H51.0603V114.959H59.407C63.0551 114.959 65.2157 116.7 65.2157 119.458C65.2157 121.024 64.3474 122.641 62.858 123.162C64.9201 123.609 65.9613 125.349 65.9613 127.162Z" fill="white"/>
<path fill-rule="evenodd" clip-rule="evenodd" d="M73.2482 131.864H77.4448V114.959H73.2482V131.864Z" fill="white"/>
<path fill-rule="evenodd" clip-rule="evenodd" d="M97.9258 131.864H85.3844V114.959H89.581V128.16H97.9258V131.864Z" fill="white"/>
<mask id="mask1_6_255" style="mask-type:alpha" maskUnits="userSpaceOnUse" x="0" y="0" width="118" height="188">
<path d="M0 0H117.631V187.04H0V0Z" fill="white"/>
</mask>
<g mask="url(#mask1_6_255)">
<path fill-rule="evenodd" clip-rule="evenodd" d="M109.062 121.694H116.538V125.277H109.062V128.209H117.631V131.864H104.865V114.959H117.631V118.611H109.062V121.694Z" fill="white"/>
<path fill-rule="evenodd" clip-rule="evenodd" d="M100.107 0H17.413C7.735 0 -0.111563 7.85505 -0.111563 17.5436V44.9767H10.9833V17.5436C10.9833 13.9939 13.8672 11.1069 17.413 11.1069H100.107C103.651 11.1069 106.535 13.9939 106.535 17.5436V44.9767H117.632V17.5436C117.632 7.85505 109.785 0 100.107 0Z" fill="white"/>
<path fill-rule="evenodd" clip-rule="evenodd" d="M66.9542 179.819H50.5638C48.9053 179.819 47.5479 178.46 47.5479 176.798C47.5479 175.138 48.9053 173.779 50.5638 173.779H66.9542C68.6147 173.779 69.972 175.138 69.972 176.798C69.972 178.46 68.6147 179.819 66.9542 179.819ZM106.535 139.427V160.01C106.535 163.558 103.651 166.445 100.107 166.445H17.413C13.8672 166.445 10.9833 163.558 10.9833 160.01V139.427H-0.111563V169.608C-0.111563 179.298 7.735 187.151 17.413 187.151H100.107C109.785 187.151 117.632 179.298 117.632 169.608V139.427H106.535Z" fill="white"/>
</g>
</svg>
