<svg width="62" height="36" viewBox="0 0 62 36" fill="none" xmlns="http://www.w3.org/2000/svg">
  <path d="M34.8398 17.6003C34.8398 27.3204 27.0405 35.2 17.4202 35.2C7.79984 35.2 0 27.3186 0 17.6003C0 7.88201 7.79925 0 17.4202 0C27.0411 0 34.8398 7.88022 34.8398 17.6003ZM53.9496 17.6003C53.9496 26.7496 50.05 34.1696 45.2395 34.1696C40.4291 34.1696 36.5295 26.7496 36.5295 17.6003C36.5295 8.45094 40.4285 1.03098 45.2389 1.03098C50.0494 1.03098 53.949 8.44857 53.949 17.6003H53.9496ZM61.766 17.6003C61.766 25.7959 60.3947 32.4438 58.7027 32.4438C57.0106 32.4438 55.6399 25.7977 55.6399 17.6003C55.6399 9.40294 57.0112 2.7568 58.7027 2.7568C60.3942 2.7568 61.766 9.40234 61.766 17.6003" fill="currentColor"/>
</svg>
